<?xml version="1.0" encoding="utf-8"?>
<!-- Generator: Adobe Illustrator 22.1.0, SVG Export Plug-In . SVG Version: 6.00 Build 0)  -->
<svg version="1.1" id="Warstwa_1" xmlns="http://www.w3.org/2000/svg" xmlns:xlink="http://www.w3.org/1999/xlink" x="0px" y="0px"
	 viewBox="0 0 522.2 250.5" style="enable-background:new 0 0 522.2 250.5;" xml:space="preserve">
<style type="text/css">
	.st0{fill:#09598D;}
	.st1{fill:#40403F;}
	.st2{fill:#FFFFFF;}
	.st3{fill:#78A4C0;}
	.st4{fill:#2E729E;}
	.st5{fill:#4783AA;}
	.st6{fill:#9DBDD1;}
	.st7{fill:#84ACC6;}
	.st8{fill:#6B9BBB;}
	.st9{fill:#3A7AA4;}
	.st10{fill:#216998;}
</style>
<title>Logo</title>
<g>
	<path class="st0" d="M129.3,221.4h-6.7l2.4-12h6.2c2.1,0,3.6,0.4,4.7,1.2c1.1,0.8,1.6,2.1,1.6,3.7c0,2.3-0.7,4-2.2,5.2
		C134,220.8,131.9,221.4,129.3,221.4z M132.2,203h-13.9l-6.9,34.4h8l1.9-9.5h7.7c3.4,0,6.4-0.6,8.9-1.7s4.4-2.8,5.8-4.9s2-4.7,2-7.6
		c0-3.4-1.2-6-3.5-7.9C139.8,203.9,136.5,203,132.2,203z"/>
	<path class="st0" d="M164.9,231.2c-3,0-5.3-0.8-6.9-2.3c-1.6-1.6-2.5-3.6-2.5-6.3c0-2.5,0.5-4.7,1.5-6.7c1-2,2.5-3.7,4.4-4.9
		c1.9-1.2,4.1-1.8,6.6-1.8c3,0,5.3,0.8,6.9,2.3c1.6,1.6,2.5,3.7,2.5,6.3c0,2.5-0.5,4.7-1.5,6.7c-1,2-2.5,3.7-4.4,4.9
		C169.6,230.6,167.4,231.2,164.9,231.2z M164.2,238c4.2,0,7.9-0.9,11.1-2.7c3.2-1.8,5.7-4.3,7.5-7.4c1.8-3.1,2.7-6.7,2.7-10.6
		c0-3-0.7-5.6-2-7.8c-1.3-2.3-3.3-4-5.8-5.3c-2.5-1.2-5.5-1.9-9-1.9c-4.2,0-7.9,0.9-11.1,2.7c-3.2,1.8-5.7,4.3-7.5,7.4
		c-1.8,3.1-2.7,6.7-2.7,10.6c0,3,0.7,5.6,2,7.8c1.3,2.3,3.3,4,5.8,5.3C157.8,237.4,160.8,238,164.2,238z"/>
	<path class="st0" d="M212.1,230c-1.8,0.8-3.7,1.2-5.7,1.2c-3.2,0-5.7-0.8-7.4-2.3c-1.7-1.6-2.6-3.7-2.6-6.3c0-2.5,0.5-4.8,1.6-6.8
		c1.1-2,2.6-3.6,4.7-4.8c2-1.2,4.3-1.7,6.9-1.7c2,0,3.7,0.3,5.1,0.9c1.4,0.6,2.7,1.6,3.9,2.9l5.7-4.6c-1.5-2-3.4-3.5-5.8-4.5
		c-2.4-1-5.3-1.5-8.5-1.5c-4.3,0-8,0.9-11.3,2.7c-3.3,1.8-5.8,4.3-7.6,7.4c-1.8,3.1-2.7,6.7-2.7,10.6c0,3,0.7,5.6,2.1,7.8
		c1.4,2.3,3.4,4,5.9,5.3c2.6,1.2,5.6,1.9,9,1.9c2.5,0,4.8-0.4,7.1-1.1c2.3-0.7,4.3-1.8,6.1-3.1l2.9-14.2h-7.3L212.1,230z"/>
	<path class="st0" d="M242.1,221.4h-6.8l2.4-12h6.3c2.1,0,3.7,0.4,4.8,1.2c1.1,0.8,1.7,2.1,1.7,3.7c0,2.3-0.7,4-2.2,5.2
		C246.8,220.8,244.8,221.4,242.1,221.4z M258.6,213.7c0-3.4-1.2-6-3.5-7.9c-2.4-1.9-5.7-2.8-9.9-2.8h-14l-6.9,34.4h8l1.9-9.6h6.8
		l5.4,9.6h8.4l-6-10.6c3.1-1,5.5-2.6,7.2-4.9C257.7,219.6,258.6,216.9,258.6,213.7z"/>
	<path class="st0" d="M272.9,224l8.1-13.3l2.9,13.3H272.9z M286.8,237.4h8l-8.5-34.4h-7.9l-22.3,34.4h8.5l4.5-7.4h16L286.8,237.4z"
		/>
	<polygon class="st0" points="327.3,203 323,224.6 310.2,203 303.6,203 296.7,237.4 304.6,237.4 308.9,215.9 321.8,237.4 
		328.3,237.4 335.2,203 	"/>
	<polygon class="st0" points="335.5,237.4 343.6,237.4 350.4,203 342.4,203 	"/>
	<path class="st0" d="M368.3,238c6.3,0,11.2-2,14.6-6l-4.7-4.8c-2.5,2.7-5.5,4-9.2,4c-3.1,0-5.4-0.8-7.1-2.3
		c-1.7-1.6-2.5-3.7-2.5-6.3c0-2.5,0.5-4.8,1.6-6.8c1.1-2,2.6-3.6,4.5-4.8c1.9-1.2,4.2-1.8,6.7-1.8c3.7,0,6.5,1.3,8.3,4l5.8-4.7
		c-1.2-2-3-3.5-5.4-4.5c-2.4-1-5.1-1.6-8.2-1.6c-4.2,0-7.9,0.9-11.2,2.7c-3.2,1.8-5.8,4.3-7.6,7.4c-1.8,3.1-2.7,6.7-2.7,10.6
		c0,3,0.7,5.6,2.1,7.8s3.4,4,5.9,5.3C361.8,237.4,364.9,238,368.3,238z"/>
	<polygon class="st0" points="420.2,203 391.3,203 390,209.5 408.1,209.5 384.9,232.3 383.9,237.4 414,237.4 415.3,230.9 396,230.9 
		419.2,208.1 	"/>
	<polygon class="st0" points="449.4,209.4 450.7,203 424.7,203 417.8,237.4 444.4,237.4 445.8,231 427,231 428.5,223.1 444.6,223.1 
		445.8,216.9 429.8,216.9 431.3,209.4 	"/>
	<path class="st1" d="M162.6,35.7c1.4,0,2.6-0.2,3.6-0.6s1.9-1,2.5-1.8c0.6-0.8,0.9-1.7,0.9-2.7c0-0.8-0.2-1.5-0.7-2.1
		s-1-0.9-1.6-1.2c-0.6-0.3-1.5-0.6-2.5-0.9c-0.8-0.3-1.5-0.5-2-0.7c-0.5-0.2-0.9-0.4-1.2-0.8s-0.5-0.7-0.5-1.2
		c0-0.9,0.4-1.6,1.2-2.1c0.8-0.5,1.9-0.8,3.2-0.8c0.8,0,1.6,0.1,2.4,0.3c0.8,0.2,1.4,0.5,2.1,1l0.9-1.9c-0.7-0.4-1.5-0.8-2.4-1
		s-1.9-0.4-2.9-0.4c-1.3,0-2.5,0.2-3.5,0.6c-1,0.4-1.8,1-2.4,1.8c-0.6,0.8-0.9,1.7-0.9,2.7c0,0.9,0.2,1.6,0.7,2.2
		c0.5,0.6,1,1,1.7,1.3c0.6,0.3,1.5,0.6,2.5,0.9c0.8,0.3,1.5,0.5,1.9,0.7c0.5,0.2,0.8,0.4,1.2,0.8c0.3,0.3,0.5,0.7,0.5,1.2
		c0,0.9-0.4,1.6-1.2,2.1c-0.8,0.5-1.9,0.7-3.2,0.7c-1,0-2-0.2-3-0.5s-1.7-0.8-2.4-1.4l-1,1.9c0.6,0.6,1.5,1.1,2.6,1.4
		C160.2,35.6,161.4,35.7,162.6,35.7z"/>
	<path class="st1" d="M176,25h3.6l0.4-1.9h-3.6l0.5-2.7h-2.3l-0.5,2.7H172l-0.4,1.9h2.1l-1.3,6.7c-0.1,0.3-0.1,0.6-0.1,0.9
		c0,1,0.3,1.7,0.9,2.3c0.6,0.6,1.4,0.8,2.4,0.8c1.2,0,2.1-0.3,2.9-0.8l-0.5-1.7c-0.5,0.4-1.1,0.6-1.8,0.6c-0.5,0-1-0.1-1.2-0.4
		c-0.3-0.3-0.4-0.6-0.4-1.2c0-0.2,0-0.4,0.1-0.7L176,25z"/>
	<path class="st1" d="M186.2,33.7c-1.2,0-2.1-0.3-2.7-0.9c-0.6-0.6-1-1.5-1-2.6c0-1,0.2-1.9,0.6-2.7c0.4-0.8,1-1.4,1.7-1.9
		s1.6-0.7,2.5-0.7c1.2,0,2.1,0.3,2.7,0.9c0.6,0.6,1,1.5,1,2.6c0,1-0.2,1.9-0.6,2.7c-0.4,0.8-1,1.4-1.7,1.9
		C187.9,33.5,187.1,33.7,186.2,33.7z M186,35.7c1.4,0,2.6-0.3,3.7-1c1.1-0.6,2-1.5,2.6-2.6c0.6-1.1,0.9-2.4,0.9-3.8
		c0-1.1-0.2-2-0.7-2.8c-0.5-0.8-1.2-1.4-2-1.9c-0.9-0.4-1.9-0.7-3.1-0.7c-1.4,0-2.6,0.3-3.8,1c-1.1,0.6-2,1.5-2.6,2.6
		c-0.6,1.1-0.9,2.4-0.9,3.8c0,1.1,0.2,2,0.7,2.8c0.5,0.8,1.2,1.4,2,1.9C183.8,35.5,184.9,35.7,186,35.7z"/>
	<polygon class="st1" points="213.9,23.1 208.4,33 206.5,23.1 204.5,23.1 198.9,33 197.1,23.1 195,23.1 197.4,35.6 199.6,35.6 
		205,26.1 206.9,35.6 209.1,35.6 216.1,23.1 	"/>
	<path class="st1" d="M221.4,33.7c-1.2,0-2.1-0.3-2.7-0.9c-0.6-0.6-1-1.5-1-2.6c0-1,0.2-1.9,0.6-2.7c0.4-0.8,1-1.4,1.7-1.9
		s1.6-0.7,2.5-0.7c1.2,0,2.1,0.3,2.7,0.9c0.6,0.6,1,1.5,1,2.6c0,1-0.2,1.9-0.6,2.7c-0.4,0.8-1,1.4-1.7,1.9
		C223.2,33.5,222.4,33.7,221.4,33.7z M227.4,23.1l-0.4,2.1c-0.4-0.7-1-1.3-1.8-1.7c-0.8-0.4-1.7-0.6-2.7-0.6c-1.3,0-2.5,0.3-3.6,0.9
		c-1.1,0.6-1.9,1.5-2.5,2.6c-0.6,1.1-0.9,2.4-0.9,3.8c0,1.1,0.2,2.1,0.7,2.9s1.1,1.4,1.9,1.9s1.8,0.6,2.8,0.6c0.9,0,1.7-0.1,2.4-0.4
		c0.7-0.3,1.4-0.7,2-1.2l-0.3,1.5h2.2l2.5-12.4H227.4z"/>
	<path class="st1" d="M235.3,25l0.4-1.9h-2.2L231,35.6h2.3l1.2-6.2c0.5-2.8,2.1-4.2,4.7-4.2c0.3,0,0.4,0,0.6,0l0.4-2.2
		c-1.1,0-2.1,0.2-2.9,0.5C236.5,23.8,235.9,24.3,235.3,25z"/>
	<polygon class="st1" points="252.1,23.1 242,23.1 241.7,25 248.7,25 239.7,34.1 239.4,35.6 249.8,35.6 250.2,33.7 242.7,33.7 
		251.8,24.6 	"/>
	<path class="st1" d="M264.4,23.1l-6.3,10l-2.4-10h-2.3l3,12.4l-0.6,1c-0.4,0.7-0.9,1.2-1.3,1.4c-0.4,0.3-0.9,0.4-1.4,0.4
		c-0.8,0-1.6-0.3-2.1-0.8l-1.2,1.7c0.3,0.3,0.8,0.6,1.3,0.8c0.6,0.2,1.2,0.3,1.8,0.3c1,0,1.8-0.2,2.6-0.7s1.5-1.4,2.3-2.6l8.8-13.8
		H264.4z"/>
	<path class="st1" d="M270.2,35.7c1.7,0,3.1-0.4,4.1-1.1s1.6-1.7,1.6-3c0-0.7-0.2-1.3-0.6-1.7c-0.4-0.4-0.8-0.7-1.4-0.9
		s-1.3-0.4-2.1-0.6c-1-0.2-1.7-0.4-2.1-0.6c-0.5-0.2-0.7-0.6-0.7-1.1c0-0.6,0.3-1,0.8-1.4c0.5-0.3,1.3-0.5,2.3-0.5
		c0.7,0,1.3,0.1,2,0.2c0.6,0.2,1.2,0.4,1.7,0.7l0.9-1.8c-0.5-0.3-1.1-0.6-1.9-0.8c-0.8-0.2-1.6-0.3-2.4-0.3c-1.1,0-2.1,0.2-3,0.5
		c-0.9,0.3-1.5,0.8-2,1.4c-0.5,0.6-0.7,1.3-0.7,2.1c0,0.7,0.2,1.3,0.6,1.8c0.4,0.4,0.9,0.7,1.4,0.9c0.6,0.2,1.3,0.4,2.1,0.6
		c0.9,0.2,1.6,0.4,2.1,0.6c0.4,0.2,0.7,0.5,0.7,1c0,0.6-0.3,1-0.8,1.4c-0.6,0.3-1.4,0.5-2.4,0.5c-0.8,0-1.7-0.1-2.4-0.3
		c-0.8-0.2-1.4-0.5-1.9-0.9l-1,1.8c0.5,0.4,1.2,0.8,2.2,1C268.2,35.6,269.2,35.7,270.2,35.7z"/>
	<polygon class="st1" points="289.5,23.1 279.4,23.1 279,25 286.1,25 277,34.1 276.7,35.6 287.2,35.6 287.5,33.7 280.1,33.7 
		289.2,24.6 	"/>
	<path class="st1" d="M296.5,24.9c1.1,0,2,0.3,2.7,0.9c0.6,0.6,0.9,1.5,0.9,2.6h-8c0.3-1.1,0.8-2,1.6-2.6
		C294.4,25.2,295.4,24.9,296.5,24.9z M302,30c0.1-0.6,0.2-1.2,0.2-1.7c0-1.7-0.5-3-1.5-3.9c-1-1-2.4-1.4-4.1-1.4
		c-1.3,0-2.5,0.3-3.6,0.9c-1.1,0.6-1.9,1.5-2.5,2.6c-0.6,1.1-0.9,2.4-0.9,3.8c0,1.1,0.2,2.1,0.7,2.9s1.2,1.4,2.1,1.9
		s1.9,0.7,3.2,0.7c1,0,1.9-0.2,2.8-0.5c0.9-0.3,1.6-0.8,2.2-1.3l-1-1.6c-0.5,0.4-1,0.8-1.7,1s-1.4,0.4-2.2,0.4c-1.3,0-2.3-0.3-3-0.9
		s-1-1.5-1-2.6V30H302z"/>
	<path class="st1" d="M312.4,23c-1.9,0-3.4,0.6-4.5,1.7l0.3-1.6H306l-2.5,12.4h2.3l1.3-6.6c0.3-1.3,0.8-2.3,1.6-3c0.8-0.7,1.8-1,3-1
		c1,0,1.7,0.2,2.2,0.7c0.5,0.4,0.7,1.1,0.7,1.9c0,0.3,0,0.6-0.1,1l-1.4,7h2.3l1.4-7c0.1-0.5,0.1-1,0.1-1.5c0-1.3-0.4-2.3-1.2-3.1
		C314.9,23.4,313.8,23,312.4,23z"/>
	<path class="st1" d="M323.2,20.7c0.5,0,0.9-0.1,1.2-0.4c0.3-0.3,0.5-0.7,0.5-1.2c0-0.4-0.1-0.7-0.4-0.9c-0.3-0.3-0.6-0.4-1-0.4
		c-0.5,0-0.9,0.2-1.2,0.5c-0.3,0.3-0.5,0.7-0.5,1.1c0,0.4,0.1,0.7,0.4,1C322.5,20.6,322.8,20.7,323.2,20.7z M319,35.6h2.3l2.5-12.4
		h-2.3L319,35.6z"/>
	<path class="st1" d="M332.1,24.9c1.1,0,2,0.3,2.7,0.9c0.6,0.6,0.9,1.5,0.9,2.6h-8c0.3-1.1,0.8-2,1.6-2.6
		C330.1,25.2,331,24.9,332.1,24.9z M337.6,30c0.1-0.6,0.2-1.2,0.2-1.7c0-1.7-0.5-3-1.5-3.9c-1-1-2.4-1.4-4.1-1.4
		c-1.3,0-2.5,0.3-3.6,0.9c-1.1,0.6-1.9,1.5-2.5,2.6c-0.6,1.1-0.9,2.4-0.9,3.8c0,1.1,0.2,2.1,0.7,2.9s1.2,1.4,2.1,1.9
		s1.9,0.7,3.2,0.7c1,0,1.9-0.2,2.8-0.5c0.9-0.3,1.6-0.8,2.2-1.3l-1-1.6c-0.5,0.4-1,0.8-1.7,1s-1.4,0.4-2.2,0.4c-1.3,0-2.3-0.3-3-0.9
		s-1-1.5-1-2.6V30H337.6z"/>
	<path class="st1" d="M159,56.7h-4l1.5-7.4h3.9c1.3,0,2.2,0.3,2.9,0.8c0.7,0.5,1,1.2,1,2.2c0,1.4-0.5,2.5-1.4,3.3
		C162,56.3,160.6,56.7,159,56.7z M160.6,47.3h-6.1l-3.3,16.4h2.3l1-5h4.4c1.6,0,3-0.3,4.1-0.8c1.2-0.5,2-1.3,2.7-2.3
		c0.6-1,0.9-2.2,0.9-3.6c0-1.5-0.5-2.7-1.6-3.6C164,47.7,162.5,47.3,160.6,47.3z"/>
	<path class="st1" d="M173.5,61.9c-1.2,0-2.1-0.3-2.7-0.9c-0.6-0.6-1-1.5-1-2.6c0-1,0.2-1.9,0.6-2.7c0.4-0.8,1-1.4,1.7-1.9
		s1.6-0.7,2.5-0.7c1.2,0,2.1,0.3,2.7,0.9c0.6,0.6,1,1.5,1,2.6c0,1-0.2,1.9-0.6,2.7c-0.4,0.8-1,1.4-1.7,1.9
		C175.3,61.7,174.4,61.9,173.5,61.9z M173.4,63.9c1.4,0,2.6-0.3,3.7-1c1.1-0.6,2-1.5,2.6-2.6c0.6-1.1,0.9-2.4,0.9-3.8
		c0-1.1-0.2-2-0.7-2.8c-0.5-0.8-1.2-1.4-2-1.9c-0.9-0.4-1.9-0.7-3.1-0.7c-1.4,0-2.6,0.3-3.8,1c-1.1,0.6-2,1.5-2.6,2.6
		c-0.6,1.1-0.9,2.4-0.9,3.8c0,1.1,0.2,2,0.7,2.8c0.5,0.8,1.2,1.4,2,1.9C171.2,63.7,172.2,63.9,173.4,63.9z"/>
	<path class="st1" d="M182.8,58.4l7.2-4.7l-0.9-1.4l-7.2,4.7L182.8,58.4z M183.1,63.7h2.3l3.5-17.4h-2.3L183.1,63.7z"/>
	<path class="st1" d="M201.7,51.3l-1.3,6.6c-0.3,1.3-0.8,2.3-1.6,3c-0.8,0.7-1.8,1-3,1c-0.9,0-1.6-0.2-2.1-0.6
		c-0.5-0.4-0.7-1.1-0.7-1.9c0-0.3,0-0.6,0.1-1.1l1.4-7h-2.3l-1.4,7c-0.1,0.5-0.1,1-0.1,1.4c0,1.3,0.4,2.3,1.2,3.1
		c0.8,0.7,1.9,1.1,3.3,1.1c0.9,0,1.7-0.1,2.5-0.4c0.8-0.3,1.4-0.7,2-1.3l-0.3,1.6h2.2l2.5-12.4H201.7z"/>
	<path class="st1" d="M211.4,61.9c-1.2,0-2.1-0.3-2.7-0.9c-0.6-0.6-1-1.5-1-2.6c0-1,0.2-1.9,0.6-2.7c0.4-0.8,1-1.4,1.7-1.9
		s1.6-0.7,2.5-0.7c1.2,0,2.1,0.3,2.7,0.9c0.6,0.6,1,1.5,1,2.6c0,1-0.2,1.9-0.6,2.7c-0.4,0.8-1,1.4-1.7,1.9
		C213.2,61.7,212.3,61.9,211.4,61.9z M218.4,46.3l-1.4,7.1c-0.4-0.7-1-1.3-1.8-1.7s-1.7-0.6-2.8-0.6c-1.3,0-2.5,0.3-3.6,0.9
		c-1.1,0.6-1.9,1.5-2.5,2.6c-0.6,1.1-0.9,2.4-0.9,3.8c0,1.1,0.2,2.1,0.7,2.9s1.1,1.4,1.9,1.9s1.8,0.6,2.8,0.6c0.9,0,1.7-0.1,2.4-0.4
		c0.7-0.3,1.4-0.7,2-1.2l-0.3,1.5h2.2l3.5-17.4H218.4z"/>
	<path class="st1" d="M229.8,51.2c-1.9,0-3.4,0.6-4.5,1.7l0.3-1.6h-2.2l-2.5,12.4h2.3l1.3-6.6c0.3-1.3,0.8-2.3,1.6-3
		c0.8-0.7,1.8-1,3-1c1,0,1.7,0.2,2.2,0.7c0.5,0.4,0.7,1.1,0.7,1.9c0,0.3,0,0.6-0.1,1l-1.4,7h2.3l1.4-7c0.1-0.5,0.1-1,0.1-1.5
		c0-1.3-0.4-2.3-1.2-3.1C232.3,51.5,231.2,51.2,229.8,51.2z"/>
	<path class="st1" d="M240.6,48.9c0.5,0,0.9-0.1,1.2-0.4c0.3-0.3,0.5-0.7,0.5-1.2c0-0.4-0.1-0.7-0.4-0.9c-0.3-0.3-0.6-0.4-1-0.4
		c-0.5,0-0.9,0.2-1.2,0.5c-0.3,0.3-0.5,0.7-0.5,1.1c0,0.4,0.1,0.7,0.4,1C239.9,48.8,240.2,48.9,240.6,48.9z M236.4,63.7h2.3
		l2.5-12.4h-2.3L236.4,63.7z"/>
	<path class="st1" d="M248.5,61.9c-1.2,0-2.1-0.3-2.7-0.9c-0.6-0.6-1-1.5-1-2.6c0-1,0.2-1.9,0.6-2.7c0.4-0.8,1-1.4,1.7-1.9
		s1.6-0.7,2.5-0.7c1.2,0,2.1,0.3,2.7,0.9c0.6,0.6,1,1.5,1,2.6c0,1-0.2,1.9-0.6,2.7c-0.4,0.8-1,1.4-1.7,1.9
		C250.2,61.7,249.4,61.9,248.5,61.9z M248.3,63.9c1.4,0,2.6-0.3,3.7-1c1.1-0.6,2-1.5,2.6-2.6c0.6-1.1,0.9-2.4,0.9-3.8
		c0-1.1-0.2-2-0.7-2.8c-0.5-0.8-1.2-1.4-2-1.9c-0.9-0.4-1.9-0.7-3.1-0.7c-1.4,0-2.6,0.3-3.8,1c-1.1,0.6-2,1.5-2.6,2.6
		c-0.6,1.1-0.9,2.4-0.9,3.8c0,1.1,0.2,2,0.7,2.8c0.5,0.8,1.2,1.4,2,1.9C246.1,63.7,247.2,63.9,248.3,63.9z"/>
	<polygon class="st1" points="276.2,51.3 270.6,61.2 268.8,51.3 266.8,51.3 261.2,61.2 259.4,51.3 257.3,51.3 259.7,63.7 
		261.9,63.7 267.3,54.3 269.2,63.7 271.4,63.7 278.3,51.3 	"/>
	<path class="st1" d="M283.7,61.9c-1.2,0-2.1-0.3-2.7-0.9c-0.6-0.6-1-1.5-1-2.6c0-1,0.2-1.9,0.6-2.7c0.4-0.8,1-1.4,1.7-1.9
		s1.6-0.7,2.5-0.7c1.2,0,2.1,0.3,2.7,0.9c0.6,0.6,1,1.5,1,2.6c0,1-0.2,1.9-0.6,2.7c-0.4,0.8-1,1.4-1.7,1.9
		C285.5,61.7,284.6,61.9,283.7,61.9z M283.6,63.9c1.4,0,2.6-0.3,3.7-1c1.1-0.6,2-1.5,2.6-2.6c0.6-1.1,0.9-2.4,0.9-3.8
		c0-1.1-0.2-2-0.7-2.8c-0.5-0.8-1.2-1.4-2-1.9c-0.9-0.4-1.9-0.7-3.1-0.7c-1.4,0-2.6,0.3-3.8,1c-1.1,0.6-2,1.5-2.6,2.6
		c-0.6,1.1-0.9,2.4-0.9,3.8c0,1.1,0.2,2,0.7,2.8c0.5,0.8,1.2,1.4,2,1.9C281.4,63.7,282.4,63.9,283.6,63.9z"/>
	<polygon class="st1" points="160.2,75.5 146.9,75.5 146.5,77.5 156.5,77.5 143.7,90.3 143.4,91.9 157.1,91.9 157.5,89.9 
		147.1,89.9 159.8,77.1 	"/>
	<path class="st1" d="M165.2,90.1c-1.2,0-2.1-0.3-2.7-0.9c-0.6-0.6-1-1.5-1-2.6c0-1,0.2-1.9,0.6-2.7c0.4-0.8,1-1.4,1.7-1.9
		s1.6-0.7,2.5-0.7c1.2,0,2.1,0.3,2.7,0.9c0.6,0.6,1,1.5,1,2.6c0,1-0.2,1.9-0.6,2.7c-0.4,0.8-1,1.4-1.7,1.9
		C167,89.9,166.2,90.1,165.2,90.1z M171.2,79.5l-0.4,2.1c-0.4-0.7-1-1.3-1.8-1.7c-0.8-0.4-1.7-0.6-2.7-0.6c-1.3,0-2.5,0.3-3.6,0.9
		c-1.1,0.6-1.9,1.5-2.5,2.6c-0.6,1.1-0.9,2.4-0.9,3.8c0,1.1,0.2,2.1,0.7,2.9s1.1,1.4,1.9,1.9s1.8,0.6,2.8,0.6c0.9,0,1.7-0.1,2.4-0.4
		c0.7-0.3,1.4-0.7,2-1.2l-0.3,1.5h2.2l2.5-12.4H171.2z"/>
	<path class="st1" d="M180.8,92.1c1.1,0,2.2-0.2,3.1-0.7c1-0.5,1.7-1.1,2.3-1.9l-1.6-1.2c-0.4,0.6-1,1-1.6,1.3s-1.4,0.4-2.1,0.4
		c-1.2,0-2.1-0.3-2.8-0.9c-0.6-0.6-1-1.5-1-2.6c0-1,0.2-1.9,0.6-2.7c0.4-0.8,1-1.4,1.8-1.9s1.6-0.7,2.5-0.7c1.6,0,2.7,0.6,3.4,1.8
		l1.9-1.1c-1-1.8-2.7-2.7-5.1-2.7c-1.4,0-2.7,0.3-3.8,1c-1.1,0.6-2,1.5-2.6,2.6c-0.6,1.1-0.9,2.4-0.9,3.8c0,1.1,0.2,2,0.7,2.8
		c0.5,0.8,1.2,1.4,2.1,1.9S179.6,92.1,180.8,92.1z"/>
	<path class="st1" d="M196.8,79.4c-1.8,0-3.3,0.5-4.4,1.6l1.3-6.4h-2.3L188,91.9h2.3l1.3-6.6c0.3-1.3,0.8-2.3,1.6-3
		c0.8-0.7,1.8-1,3-1c1,0,1.7,0.2,2.2,0.7c0.5,0.4,0.7,1.1,0.7,1.9c0,0.3,0,0.6-0.1,1l-1.4,7h2.3l1.4-7c0.1-0.5,0.1-1,0.1-1.5
		c0-1.3-0.4-2.3-1.2-3.1C199.4,79.7,198.3,79.4,196.8,79.4z"/>
	<path class="st1" d="M209.6,90.1c-1.2,0-2.1-0.3-2.7-0.9c-0.6-0.6-1-1.5-1-2.6c0-1,0.2-1.9,0.6-2.7c0.4-0.8,1-1.4,1.7-1.9
		s1.6-0.7,2.5-0.7c1.2,0,2.1,0.3,2.7,0.9c0.6,0.6,1,1.5,1,2.6c0,1-0.2,1.9-0.6,2.7c-0.4,0.8-1,1.4-1.7,1.9
		C211.3,89.9,210.5,90.1,209.6,90.1z M209.4,92.1c1.4,0,2.6-0.3,3.7-1c1.1-0.6,2-1.5,2.6-2.6c0.6-1.1,0.9-2.4,0.9-3.8
		c0-1.1-0.2-2-0.7-2.8c-0.5-0.8-1.2-1.4-2-1.9c-0.9-0.4-1.9-0.7-3.1-0.7c-1.4,0-2.6,0.3-3.8,1c-1.1,0.6-2,1.5-2.6,2.6
		c-0.6,1.1-0.9,2.4-0.9,3.8c0,1.1,0.2,2,0.7,2.8c0.5,0.8,1.2,1.4,2,1.9C207.2,91.8,208.3,92.1,209.4,92.1z"/>
	<path class="st1" d="M224.5,90.1c-1.2,0-2.1-0.3-2.7-0.9c-0.6-0.6-1-1.5-1-2.6c0-1,0.2-1.9,0.6-2.7c0.4-0.8,1-1.4,1.7-1.9
		s1.6-0.7,2.5-0.7c1.2,0,2.1,0.3,2.7,0.9c0.6,0.6,1,1.5,1,2.6c0,1-0.2,1.9-0.6,2.7c-0.4,0.8-1,1.4-1.7,1.9
		C226.2,89.9,225.4,90.1,224.5,90.1z M231.4,74.5l-1.4,7.1c-0.4-0.7-1-1.3-1.8-1.7s-1.7-0.6-2.8-0.6c-1.3,0-2.5,0.3-3.6,0.9
		c-1.1,0.6-1.9,1.5-2.5,2.6c-0.6,1.1-0.9,2.4-0.9,3.8c0,1.1,0.2,2.1,0.7,2.9s1.1,1.4,1.9,1.9s1.8,0.6,2.8,0.6c0.9,0,1.7-0.1,2.4-0.4
		c0.7-0.3,1.4-0.7,2-1.2l-0.3,1.5h2.2l3.5-17.4H231.4z"/>
	<path class="st1" d="M242.8,79.4c-1.9,0-3.4,0.6-4.5,1.7l0.3-1.6h-2.2L234,91.9h2.3l1.3-6.6c0.3-1.3,0.8-2.3,1.6-3
		c0.8-0.7,1.8-1,3-1c1,0,1.7,0.2,2.2,0.7c0.5,0.4,0.7,1.1,0.7,1.9c0,0.3,0,0.6-0.1,1l-1.4,7h2.3l1.4-7c0.1-0.5,0.1-1,0.1-1.5
		c0-1.3-0.4-2.3-1.2-3.1C245.4,79.7,244.3,79.4,242.8,79.4z"/>
	<path class="st1" d="M253.7,77.1c0.5,0,0.9-0.1,1.2-0.4c0.3-0.3,0.5-0.7,0.5-1.2c0-0.4-0.1-0.7-0.4-0.9c-0.3-0.3-0.6-0.4-1-0.4
		c-0.5,0-0.9,0.2-1.2,0.5c-0.3,0.3-0.5,0.7-0.5,1.1c0,0.4,0.1,0.7,0.4,1C252.9,77,253.3,77.1,253.7,77.1z M249.4,91.9h2.3l2.5-12.4
		h-2.3L249.4,91.9z"/>
	<path class="st1" d="M262.6,81.2c1.1,0,2,0.3,2.7,0.9c0.6,0.6,0.9,1.5,0.9,2.6h-8c0.3-1.1,0.8-2,1.6-2.6
		C260.5,81.6,261.5,81.2,262.6,81.2z M268.1,86.4c0.1-0.6,0.2-1.2,0.2-1.7c0-1.7-0.5-3-1.5-3.9c-1-1-2.4-1.4-4.1-1.4
		c-1.3,0-2.5,0.3-3.6,0.9c-1.1,0.6-1.9,1.5-2.5,2.6c-0.6,1.1-0.9,2.4-0.9,3.8c0,1.1,0.2,2.1,0.7,2.9s1.2,1.4,2.1,1.9
		s1.9,0.7,3.2,0.7c1,0,1.9-0.2,2.8-0.5c0.9-0.3,1.6-0.8,2.2-1.3l-1-1.6c-0.5,0.4-1,0.8-1.7,1s-1.4,0.4-2.2,0.4c-1.3,0-2.3-0.3-3-0.9
		s-1-1.5-1-2.6v-0.1H268.1z"/>
	<polygon class="st1" points="153,105.7 153.4,103.7 141.8,103.7 138.6,120.1 140.9,120.1 142.2,113.5 150.5,113.5 150.9,111.4 
		142.6,111.4 143.8,105.7 	"/>
	<path class="st1" d="M158.6,118.3c-1.2,0-2.1-0.3-2.7-0.9c-0.6-0.6-1-1.5-1-2.6c0-1,0.2-1.9,0.6-2.7c0.4-0.8,1-1.4,1.7-1.9
		s1.6-0.7,2.5-0.7c1.2,0,2.1,0.3,2.7,0.9c0.6,0.6,1,1.5,1,2.6c0,1-0.2,1.9-0.6,2.7c-0.4,0.8-1,1.4-1.7,1.9
		C160.4,118.1,159.6,118.3,158.6,118.3z M158.5,120.3c1.4,0,2.6-0.3,3.7-1c1.1-0.6,2-1.5,2.6-2.6c0.6-1.1,0.9-2.4,0.9-3.8
		c0-1.1-0.2-2-0.7-2.8c-0.5-0.8-1.2-1.4-2-1.9c-0.9-0.4-1.9-0.7-3.1-0.7c-1.4,0-2.6,0.3-3.8,1c-1.1,0.6-2,1.5-2.6,2.6
		c-0.6,1.1-0.9,2.4-0.9,3.8c0,1.1,0.2,2,0.7,2.8c0.5,0.8,1.2,1.4,2,1.9C156.3,120,157.3,120.3,158.5,120.3z"/>
	<path class="st1" d="M171.6,109.5l0.4-1.9h-2.2l-2.5,12.4h2.3l1.2-6.2c0.5-2.8,2.1-4.2,4.7-4.2c0.3,0,0.4,0,0.6,0l0.4-2.2
		c-1.1,0-2.1,0.2-2.9,0.5C172.8,108.3,172.1,108.8,171.6,109.5z"/>
	<path class="st1" d="M188.2,107.7l-1.3,6.6c-0.3,1.3-0.8,2.3-1.6,3c-0.8,0.7-1.8,1-3,1c-0.9,0-1.6-0.2-2.1-0.6
		c-0.5-0.4-0.7-1.1-0.7-1.9c0-0.3,0-0.6,0.1-1.1l1.4-7h-2.3l-1.4,7c-0.1,0.5-0.1,1-0.1,1.4c0,1.3,0.4,2.3,1.2,3.1
		c0.8,0.7,1.9,1.1,3.3,1.1c0.9,0,1.7-0.1,2.5-0.4c0.8-0.3,1.4-0.7,2-1.3l-0.3,1.6h2.2l2.5-12.4H188.2z"/>
	<path class="st1" d="M209.5,107.5c-2.1,0-3.8,0.7-5.1,2.2c-0.3-0.7-0.8-1.3-1.5-1.6c-0.7-0.4-1.5-0.6-2.5-0.6
		c-1.8,0-3.2,0.6-4.3,1.7l0.3-1.5h-2.2l-2.5,12.4h2.3l1.3-6.6c0.3-1.3,0.8-2.3,1.5-3c0.7-0.7,1.7-1,2.9-1c0.9,0,1.6,0.2,2.1,0.6
		c0.5,0.4,0.7,1.1,0.7,1.9c0,0.3,0,0.6-0.1,1.1l-1.4,7h2.3l1.3-6.6c0.3-1.3,0.8-2.3,1.5-2.9c0.7-0.6,1.7-1,2.9-1
		c0.9,0,1.6,0.2,2.1,0.6s0.7,1,0.7,1.9c0,0.3,0,0.6-0.1,1.1l-1.4,7h2.3l1.4-7c0.1-0.6,0.2-1.1,0.2-1.5c0-1.3-0.4-2.3-1.2-3
		C212.1,107.9,211,107.5,209.5,107.5z"/>
	<path class="st1" d="M137.3,148.5c1.4,0,2.6-0.2,3.6-0.6s1.9-1,2.5-1.8c0.6-0.8,0.9-1.7,0.9-2.7c0-0.8-0.2-1.5-0.7-2.1
		s-1-0.9-1.6-1.2c-0.6-0.3-1.5-0.6-2.5-0.9c-0.8-0.3-1.5-0.5-2-0.7c-0.5-0.2-0.9-0.4-1.2-0.8s-0.5-0.7-0.5-1.2
		c0-0.9,0.4-1.6,1.2-2.1c0.8-0.5,1.9-0.8,3.2-0.8c0.8,0,1.6,0.1,2.4,0.3c0.8,0.2,1.4,0.5,2.1,1l0.9-1.9c-0.7-0.4-1.5-0.8-2.4-1
		s-1.9-0.4-2.9-0.4c-1.3,0-2.5,0.2-3.5,0.6c-1,0.4-1.8,1-2.4,1.8c-0.6,0.8-0.9,1.7-0.9,2.7c0,0.9,0.2,1.6,0.7,2.2
		c0.5,0.6,1,1,1.7,1.3c0.6,0.3,1.5,0.6,2.5,0.9c0.8,0.3,1.5,0.5,1.9,0.7c0.5,0.2,0.8,0.4,1.2,0.8c0.3,0.3,0.5,0.7,0.5,1.2
		c0,0.9-0.4,1.6-1.2,2.1c-0.8,0.5-1.9,0.7-3.2,0.7c-1,0-2-0.2-3-0.5s-1.7-0.8-2.4-1.4l-1,1.9c0.6,0.6,1.5,1.1,2.6,1.4
		C134.9,148.3,136.1,148.5,137.3,148.5z"/>
	<path class="st1" d="M152.3,146.5c-1.2,0-2.1-0.3-2.7-0.9c-0.6-0.6-1-1.5-1-2.6c0-1,0.2-1.9,0.6-2.7c0.4-0.8,1-1.4,1.7-1.9
		s1.6-0.7,2.5-0.7c1.2,0,2.1,0.3,2.7,0.9c0.6,0.6,1,1.5,1,2.6c0,1-0.2,1.9-0.6,2.7c-0.4,0.8-1,1.4-1.7,1.9
		C154.1,146.2,153.2,146.5,152.3,146.5z M158.3,135.9l-0.4,2.1c-0.4-0.7-1-1.3-1.8-1.7c-0.8-0.4-1.7-0.6-2.7-0.6
		c-1.3,0-2.5,0.3-3.6,0.9c-1.1,0.6-1.9,1.5-2.5,2.6c-0.6,1.1-0.9,2.4-0.9,3.8c0,1.1,0.2,2.1,0.7,2.9s1.1,1.4,1.9,1.9
		s1.8,0.6,2.8,0.6c0.9,0,1.7-0.1,2.4-0.4c0.7-0.3,1.4-0.7,2-1.2l-0.3,1.5h2.2l2.5-12.4H158.3z"/>
	<path class="st1" d="M179.6,135.7c-2.1,0-3.8,0.7-5.1,2.2c-0.3-0.7-0.8-1.3-1.5-1.6c-0.7-0.4-1.5-0.6-2.5-0.6
		c-1.8,0-3.2,0.6-4.3,1.7l0.3-1.5h-2.2l-2.5,12.4h2.3l1.3-6.6c0.3-1.3,0.8-2.3,1.5-3c0.7-0.7,1.7-1,2.9-1c0.9,0,1.6,0.2,2.1,0.6
		c0.5,0.4,0.7,1.1,0.7,1.9c0,0.3,0,0.6-0.1,1.1l-1.4,7h2.3l1.3-6.6c0.3-1.3,0.8-2.3,1.5-2.9c0.7-0.6,1.7-1,2.9-1
		c0.9,0,1.6,0.2,2.1,0.6s0.7,1,0.7,1.9c0,0.3,0,0.6-0.1,1.1l-1.4,7h2.3l1.4-7c0.1-0.6,0.2-1.1,0.2-1.5c0-1.3-0.4-2.3-1.2-3
		C182.1,136.1,181,135.7,179.6,135.7z"/>
	<path class="st1" d="M192.3,146.5c-1.2,0-2.1-0.3-2.7-0.9c-0.6-0.6-1-1.5-1-2.6c0-1,0.2-1.9,0.6-2.7c0.4-0.8,1-1.4,1.7-1.9
		s1.6-0.7,2.5-0.7c1.2,0,2.1,0.3,2.7,0.9c0.6,0.6,1,1.5,1,2.6c0,1-0.2,1.9-0.6,2.7c-0.4,0.8-1,1.4-1.7,1.9
		C194.1,146.2,193.2,146.5,192.3,146.5z M192.2,148.4c1.4,0,2.6-0.3,3.7-1c1.1-0.6,2-1.5,2.6-2.6c0.6-1.1,0.9-2.4,0.9-3.8
		c0-1.1-0.2-2-0.7-2.8c-0.5-0.8-1.2-1.4-2-1.9c-0.9-0.4-1.9-0.7-3.1-0.7c-1.4,0-2.6,0.3-3.8,1c-1.1,0.6-2,1.5-2.6,2.6
		c-0.6,1.1-0.9,2.4-0.9,3.8c0,1.1,0.2,2,0.7,2.8c0.5,0.8,1.2,1.4,2,1.9C190,148.2,191,148.4,192.2,148.4z"/>
	<path class="st1" d="M205.2,137.7l0.4-1.9h-2.2l-2.5,12.4h2.3l1.2-6.2c0.5-2.8,2.1-4.2,4.7-4.2c0.3,0,0.4,0,0.6,0l0.4-2.2
		c-1.1,0-2.1,0.2-2.9,0.5C206.5,136.5,205.8,137,205.2,137.7z"/>
	<polygon class="st1" points="222,135.9 212,135.9 211.6,137.7 218.7,137.7 209.6,146.8 209.3,148.3 219.7,148.3 220.1,146.4 
		212.7,146.4 221.7,137.3 	"/>
	<path class="st1" d="M231.4,153.6c0.8,0,1.5-0.2,2.2-0.6l-0.3-1.2c-0.5,0.3-1,0.4-1.6,0.4c-0.4,0-0.7-0.1-0.9-0.3
		c-0.2-0.2-0.3-0.4-0.3-0.8c0-0.5,0.3-1,0.9-1.5s1.4-1,2.5-1.4l-1-0.8c-2.7,1-4,2.4-4,4c0,0.6,0.2,1.1,0.7,1.5
		C230,153.4,230.6,153.6,231.4,153.6z M228.2,146.5c-1.2,0-2.1-0.3-2.7-0.9c-0.6-0.6-1-1.5-1-2.6c0-1,0.2-1.9,0.6-2.7
		c0.4-0.8,1-1.4,1.7-1.9s1.6-0.7,2.5-0.7c1.2,0,2.1,0.3,2.7,0.9c0.6,0.6,1,1.5,1,2.6c0,1-0.2,1.9-0.6,2.7c-0.4,0.8-1,1.4-1.7,1.9
		C229.9,146.2,229.1,146.5,228.2,146.5z M234.1,135.9l-0.4,2.1c-0.4-0.7-1-1.3-1.8-1.7c-0.8-0.4-1.7-0.6-2.7-0.6
		c-1.3,0-2.5,0.3-3.6,0.9c-1.1,0.6-1.9,1.5-2.5,2.6c-0.6,1.1-0.9,2.4-0.9,3.8c0,1.1,0.2,2.1,0.7,2.9s1.1,1.4,1.9,1.9
		s1.8,0.6,2.8,0.6c0.9,0,1.7-0.1,2.4-0.4c0.7-0.3,1.4-0.7,2-1.2l-0.3,1.5h2.2l2.5-12.4H234.1z"/>
	<path class="st1" d="M243.8,146.5c-1.2,0-2.1-0.3-2.7-0.9c-0.6-0.6-1-1.5-1-2.6c0-1,0.2-1.9,0.6-2.7c0.4-0.8,1-1.4,1.7-1.9
		s1.6-0.7,2.5-0.7c1.2,0,2.1,0.3,2.7,0.9c0.6,0.6,1,1.5,1,2.6c0,1-0.2,1.9-0.6,2.7c-0.4,0.8-1,1.4-1.7,1.9
		C245.6,146.2,244.8,146.5,243.8,146.5z M250.8,130.9l-1.4,7.1c-0.4-0.7-1-1.3-1.8-1.7s-1.7-0.6-2.8-0.6c-1.3,0-2.5,0.3-3.6,0.9
		c-1.1,0.6-1.9,1.5-2.5,2.6c-0.6,1.1-0.9,2.4-0.9,3.8c0,1.1,0.2,2.1,0.7,2.9s1.1,1.4,1.9,1.9s1.8,0.6,2.8,0.6c0.9,0,1.7-0.1,2.4-0.4
		c0.7-0.3,1.4-0.7,2-1.2l-0.3,1.5h2.2l3.5-17.4H250.8z"/>
	<path class="st1" d="M265.1,135.9l-1.3,6.6c-0.3,1.3-0.8,2.3-1.6,3c-0.8,0.7-1.8,1-3,1c-0.9,0-1.6-0.2-2.1-0.6
		c-0.5-0.4-0.7-1.1-0.7-1.9c0-0.3,0-0.6,0.1-1.1l1.4-7h-2.3l-1.4,7c-0.1,0.5-0.1,1-0.1,1.4c0,1.3,0.4,2.3,1.2,3.1
		c0.8,0.7,1.9,1.1,3.3,1.1c0.9,0,1.7-0.1,2.5-0.4c0.8-0.3,1.4-0.7,2-1.3l-0.3,1.6h2.2l2.5-12.4H265.1z"/>
	<polygon class="st1" points="129.2,176.5 131.5,176.5 134.4,162.1 140,162.1 140.4,160 126.8,160 126.4,162.1 132,162.1 	"/>
	<path class="st1" d="M144.3,165.8c1.1,0,2,0.3,2.7,0.9c0.6,0.6,0.9,1.5,0.9,2.6h-8c0.3-1.1,0.8-2,1.6-2.6
		C142.3,166.1,143.2,165.8,144.3,165.8z M149.8,171c0.1-0.6,0.2-1.2,0.2-1.7c0-1.7-0.5-3-1.5-3.9c-1-1-2.4-1.4-4.1-1.4
		c-1.3,0-2.5,0.3-3.6,0.9c-1.1,0.6-1.9,1.5-2.5,2.6c-0.6,1.1-0.9,2.4-0.9,3.8c0,1.1,0.2,2.1,0.7,2.9s1.2,1.4,2.1,1.9
		s1.9,0.7,3.2,0.7c1,0,1.9-0.2,2.8-0.5c0.9-0.3,1.6-0.8,2.2-1.3l-1-1.6c-0.5,0.4-1,0.8-1.7,1s-1.4,0.4-2.2,0.4c-1.3,0-2.3-0.3-3-0.9
		s-1-1.5-1-2.6V171H149.8z"/>
	<path class="st1" d="M155.7,165.9l0.4-1.9h-2.2l-2.5,12.4h2.3l1.2-6.2c0.5-2.8,2.1-4.2,4.7-4.2c0.3,0,0.4,0,0.6,0l0.4-2.2
		c-1.1,0-2.1,0.2-2.9,0.5C156.9,164.7,156.3,165.2,155.7,165.9z"/>
	<path class="st1" d="M172.8,164l-6.3,10l-2.4-10h-2.3l3,12.4l-0.6,1c-0.4,0.7-0.9,1.2-1.3,1.4c-0.4,0.3-0.9,0.4-1.4,0.4
		c-0.8,0-1.6-0.3-2.1-0.8l-1.2,1.7c0.3,0.3,0.8,0.6,1.3,0.8c0.6,0.2,1.2,0.3,1.8,0.3c1,0,1.8-0.2,2.6-0.7s1.5-1.4,2.3-2.6L175,164
		H172.8z"/>
	<path class="st1" d="M180.1,165.9h3.6l0.4-1.9h-3.6l0.5-2.7h-2.3l-0.5,2.7H176l-0.4,1.9h2.1l-1.3,6.7c-0.1,0.3-0.1,0.6-0.1,0.9
		c0,1,0.3,1.7,0.9,2.3c0.6,0.6,1.4,0.8,2.4,0.8c1.2,0,2.1-0.3,2.9-0.8l-0.5-1.7c-0.5,0.4-1.1,0.6-1.8,0.6c-0.5,0-1-0.1-1.2-0.4
		c-0.3-0.3-0.4-0.6-0.4-1.2c0-0.2,0-0.4,0.1-0.7L180.1,165.9z"/>
	<path class="st1" d="M190.2,174.6c-1.2,0-2.1-0.3-2.7-0.9c-0.6-0.6-1-1.5-1-2.6c0-1,0.2-1.9,0.6-2.7c0.4-0.8,1-1.4,1.7-1.9
		s1.6-0.7,2.5-0.7c1.2,0,2.1,0.3,2.7,0.9c0.6,0.6,1,1.5,1,2.6c0,1-0.2,1.9-0.6,2.7c-0.4,0.8-1,1.4-1.7,1.9
		C192,174.4,191.1,174.6,190.2,174.6z M190.1,176.6c1.4,0,2.6-0.3,3.7-1c1.1-0.6,2-1.5,2.6-2.6c0.6-1.1,0.9-2.4,0.9-3.8
		c0-1.1-0.2-2-0.7-2.8c-0.5-0.8-1.2-1.4-2-1.9c-0.9-0.4-1.9-0.7-3.1-0.7c-1.4,0-2.6,0.3-3.8,1c-1.1,0.6-2,1.5-2.6,2.6
		c-0.6,1.1-0.9,2.4-0.9,3.8c0,1.1,0.2,2,0.7,2.8c0.5,0.8,1.2,1.4,2,1.9C187.9,176.4,188.9,176.6,190.1,176.6z"/>
	<path class="st1" d="M203.1,165.9l0.4-1.9h-2.2l-2.5,12.4h2.3l1.2-6.2c0.5-2.8,2.1-4.2,4.7-4.2c0.3,0,0.4,0,0.6,0l0.4-2.2
		c-1.1,0-2.1,0.2-2.9,0.5C204.4,164.7,203.7,165.2,203.1,165.9z"/>
	<path class="st1" d="M212.1,161.6c0.5,0,0.9-0.1,1.2-0.4c0.3-0.3,0.5-0.7,0.5-1.2c0-0.4-0.1-0.7-0.4-0.9c-0.3-0.3-0.6-0.4-1-0.4
		c-0.5,0-0.9,0.2-1.2,0.5c-0.3,0.3-0.5,0.7-0.5,1.1c0,0.4,0.1,0.7,0.4,1C211.4,161.5,211.7,161.6,212.1,161.6z M207.9,176.5h2.3
		l2.5-12.4h-2.3L207.9,176.5z"/>
	<path class="st1" d="M220.1,174.6c-1.2,0-2.1-0.3-2.7-0.9c-0.6-0.6-1-1.5-1-2.6c0-1,0.2-1.9,0.6-2.7c0.4-0.8,1-1.4,1.7-1.9
		s1.6-0.7,2.5-0.7c1.2,0,2.1,0.3,2.7,0.9c0.6,0.6,1,1.5,1,2.6c0,1-0.2,1.9-0.6,2.7c-0.4,0.8-1,1.4-1.7,1.9
		C221.9,174.4,221,174.6,220.1,174.6z M226.1,164l-0.4,2.1c-0.4-0.7-1-1.3-1.8-1.7c-0.8-0.4-1.7-0.6-2.7-0.6c-1.3,0-2.5,0.3-3.6,0.9
		c-1.1,0.6-1.9,1.5-2.5,2.6c-0.6,1.1-0.9,2.4-0.9,3.8c0,1.1,0.2,2.1,0.7,2.9s1.1,1.4,1.9,1.9s1.8,0.6,2.8,0.6c0.9,0,1.7-0.1,2.4-0.4
		c0.7-0.3,1.4-0.7,2-1.2l-0.3,1.5h2.2l2.5-12.4H226.1z"/>
	<polygon class="st1" points="229.7,176.5 232,176.5 235.4,159.1 233.2,159.1 	"/>
	<path class="st1" d="M244.6,163.9c-1.9,0-3.4,0.6-4.5,1.7l0.3-1.6h-2.2l-2.5,12.4h2.3l1.3-6.6c0.3-1.3,0.8-2.3,1.6-3
		c0.8-0.7,1.8-1,3-1c1,0,1.7,0.2,2.2,0.7c0.5,0.4,0.7,1.1,0.7,1.9c0,0.3,0,0.6-0.1,1l-1.4,7h2.3l1.4-7c0.1-0.5,0.1-1,0.1-1.5
		c0-1.3-0.4-2.3-1.2-3.1C247.1,164.3,246,163.9,244.6,163.9z"/>
	<path class="st1" d="M258.3,165.8c1.1,0,2,0.3,2.7,0.9c0.6,0.6,0.9,1.5,0.9,2.6h-8c0.3-1.1,0.8-2,1.6-2.6
		C256.2,166.1,257.2,165.8,258.3,165.8z M263.8,171c0.1-0.6,0.2-1.2,0.2-1.7c0-1.7-0.5-3-1.5-3.9c-1-1-2.4-1.4-4.1-1.4
		c-1.3,0-2.5,0.3-3.6,0.9c-1.1,0.6-1.9,1.5-2.5,2.6c-0.6,1.1-0.9,2.4-0.9,3.8c0,1.1,0.2,2.1,0.7,2.9s1.2,1.4,2.1,1.9
		s1.9,0.7,3.2,0.7c1,0,1.9-0.2,2.8-0.5c0.9-0.3,1.6-0.8,2.2-1.3l-1-1.6c-0.5,0.4-1,0.8-1.7,1s-1.4,0.4-2.2,0.4c-1.3,0-2.3-0.3-3-0.9
		s-1-1.5-1-2.6V171H263.8z"/>
	<path class="st1" d="M271.6,174c-1.2,0-2.1-0.3-2.7-0.9c-0.7-0.6-1-1.4-1-2.4c0-0.9,0.2-1.8,0.6-2.5c0.4-0.7,1-1.3,1.7-1.7
		c0.7-0.4,1.6-0.6,2.5-0.6c1.2,0,2.1,0.3,2.7,0.9c0.6,0.6,1,1.4,1,2.4c0,0.9-0.2,1.8-0.6,2.5s-1,1.3-1.7,1.7S272.6,174,271.6,174z
		 M277.8,164l-0.4,2.3c-0.4-0.8-1-1.4-1.8-1.8s-1.8-0.6-2.8-0.6c-1.4,0-2.6,0.3-3.7,0.9c-1.1,0.6-1.9,1.4-2.5,2.5
		c-0.6,1.1-0.9,2.2-0.9,3.5c0,1,0.2,1.9,0.7,2.7c0.5,0.8,1.1,1.4,1.9,1.8c0.8,0.4,1.8,0.6,2.9,0.6c1.8,0,3.3-0.6,4.5-1.7l-0.2,0.9
		c-0.3,1.4-0.8,2.4-1.6,3.1c-0.8,0.7-1.9,1-3.3,1c-1,0-1.8-0.1-2.6-0.4c-0.8-0.3-1.5-0.6-2-1.1l-1.2,1.7c0.7,0.6,1.5,1,2.5,1.3
		c1,0.3,2,0.5,3.2,0.5c2.1,0,3.8-0.5,5-1.5c1.2-1,2-2.6,2.5-4.9L280,164H277.8z"/>
	<path class="st1" d="M287.4,174.6c-1.2,0-2.1-0.3-2.7-0.9c-0.6-0.6-1-1.5-1-2.6c0-1,0.2-1.9,0.6-2.7c0.4-0.8,1-1.4,1.7-1.9
		s1.6-0.7,2.5-0.7c1.2,0,2.1,0.3,2.7,0.9c0.6,0.6,1,1.5,1,2.6c0,1-0.2,1.9-0.6,2.7c-0.4,0.8-1,1.4-1.7,1.9
		C289.2,174.4,288.3,174.6,287.4,174.6z M287.3,176.6c1.4,0,2.6-0.3,3.7-1c1.1-0.6,2-1.5,2.6-2.6c0.6-1.1,0.9-2.4,0.9-3.8
		c0-1.1-0.2-2-0.7-2.8c-0.5-0.8-1.2-1.4-2-1.9c-0.9-0.4-1.9-0.7-3.1-0.7c-1.4,0-2.6,0.3-3.8,1c-1.1,0.6-2,1.5-2.6,2.6
		c-0.6,1.1-0.9,2.4-0.9,3.8c0,1.1,0.2,2,0.7,2.8c0.5,0.8,1.2,1.4,2,1.9C285.1,176.4,286.1,176.6,287.3,176.6z"/>
	<polyline class="st2" points="421.9,149.4 418.2,147 430.1,142.2 427.9,135.6 433.4,131.3 438.2,111 448,106.2 449.2,95.8 
		459,90.9 479,94.1 490,102.5 491.1,101.2 479.7,92.5 459,89.1 458.8,89.1 447.6,94.6 446.3,105.1 438.6,108.9 440,100.5 427,94.6 
		419.6,86.4 412.8,89.2 398.8,87.4 399.3,82.9 403.8,79.4 407.7,69.5 423.6,69.8 408.5,49.5 413.5,34 421.8,31.4 418.9,30.5 
		412.2,32.6 406.6,49.8 420.1,67.9 406.5,67.7 402.4,78.3 397.6,82 397,87.7 378.8,107.3 381.4,127.3 388.5,134.5 390.7,134.3 
		383.1,126.5 380.7,107.9 398.2,89.1 413,91 419.1,88.5 425.9,95.9 438.1,101.5 436.6,110.2 431.8,130.3 425.8,135 427.9,141.2 
		414.3,146.7 420.3,150.4 423.7,167.9 411.4,166 411.9,167.9 425.8,170 421.9,149.4 	"/>
	<polyline class="st3" points="396.1,17.9 352.3,41.4 367.7,55 367.5,68.9 362.7,81.9 357.9,107.3 323.8,171.4 339,169.2 
		352.7,172.8 352.6,158.3 357.5,154.7 356.9,145.8 350.7,141.7 356.1,133.3 374.3,133.1 380,140.6 388.5,134.5 381.4,127.3 
		378.8,107.3 397,87.7 397.6,82 402.4,78.3 406.5,67.7 420.1,67.9 406.6,49.8 412.2,32.6 418.9,30.5 396.1,17.9 	"/>
	<polyline class="st0" points="440,100.5 427,94.6 419.6,86.4 412.8,89.2 398.8,87.4 399.3,82.9 403.8,79.4 407.7,69.5 423.6,69.8 
		408.5,49.5 413.5,34 421.8,31.4 422,30.5 425.6,17.7 437.7,14.3 435.5,0 457.8,2.3 472,17.4 473.9,25.1 484.8,19.5 491.7,5.9 
		513.7,8.6 522.2,20.4 513.5,21.9 519.9,39.1 505.4,59.7 505.2,59.9 505.5,68.2 498.6,79.3 500.2,95.9 491.1,101.2 479.7,92.5 
		459,89.1 458.8,89.1 447.6,94.6 446.3,105.1 438.6,108.9 440,100.5 	"/>
	<polyline class="st4" points="459,90.9 449.2,95.8 448,106.2 438.2,111 433.4,131.3 427.9,135.6 430.1,142.2 418.2,147 
		421.9,149.4 425.8,170 411.9,167.9 412.4,171.9 419.6,176.4 428.6,186.2 444.9,171.8 448.1,164.5 457.9,155.6 485.1,154.4 
		485.4,145.9 497.4,137.3 501.2,125.1 493.2,121.3 494,111.3 490.3,102.8 490,102.5 490,102.5 479,94.1 459,90.9 	"/>
	<path class="st4" d="M411.9,167.9L411.9,167.9l13.9,2.2L411.9,167.9 M430.1,142.2l-11.9,4.8L430.1,142.2 M459,90.9l-9.8,4.9
		l-1.2,10.5l-9.7,4.8l-4.8,20.3l-5.5,4.3l5.5-4.3l4.8-20.3l9.7-4.8l1.2-10.5L459,90.9l20,3.2l11,8.4l0,0l-11-8.4L459,90.9"/>
	<polyline class="st5" points="419.1,88.5 413,91 398.2,89.1 380.7,107.9 383.1,126.5 390.7,134.3 390.8,134.9 391.2,143 
		401.9,138.4 414.2,151.7 407.1,158.8 411.4,166 423.7,167.9 420.3,150.4 414.3,146.7 427.9,141.2 425.8,135 431.8,130.3 
		436.6,110.2 438.1,101.5 425.9,95.9 419.1,88.5 	"/>
	<polyline class="st6" points="66.6,207.8 63.2,218.5 51.9,218.5 61,225.1 57.5,235.9 66.6,229.2 75.8,235.9 72.3,225.1 81.4,218.5 
		70.1,218.5 66.6,207.8 	"/>
	<polyline class="st7" points="32.5,178.8 29,189.6 17.7,189.6 26.8,196.2 23.4,206.9 32.5,200.3 41.6,206.9 38.1,196.2 47.2,189.6 
		36,189.6 32.5,178.8 	"/>
	<polyline class="st8" points="14.8,125 11.3,135.8 0,135.8 9.1,142.4 5.6,153.1 14.8,146.5 23.9,153.1 20.4,142.4 29.5,135.8 
		18.2,135.8 14.8,125 	"/>
	<polyline class="st9" points="32.5,71.5 29,82.3 17.7,82.3 26.8,88.9 23.4,99.6 32.5,93 41.6,99.6 38.1,88.9 47.2,82.3 36,82.3 
		32.5,71.5 	"/>
	<polyline class="st10" points="69.7,34.6 66.2,45.3 54.9,45.3 64.1,51.9 60.6,62.7 69.7,56 78.8,62.7 75.3,51.9 84.5,45.3 
		73.2,45.3 69.7,34.6 	"/>
	<polygon class="st0" points="118.9,12.8 122.4,23.5 133.7,23.5 124.6,30.1 128,40.9 118.9,34.2 109.8,40.9 113.3,30.1 104.1,23.5 
		115.4,23.5 	"/>
</g>
</svg>
