<svg xmlns="http://www.w3.org/2000/svg" xmlns:xlink="http://www.w3.org/1999/xlink" viewBox="0 0 212.6 157.19"><defs><style>.cls-1{fill:#ce1d5d;}.cls-2{fill:#b52963;}.cls-3{fill:url(#Gradient_bez_nazwy_54);}</style><linearGradient id="Gradient_bez_nazwy_54" x1="130.33" y1="2.26" x2="211.54" y2="67.9" gradientUnits="userSpaceOnUse"><stop offset="0" stop-color="#54ae47"/><stop offset="1" stop-color="#3e8b38"/></linearGradient></defs><title>Logo_I</title><g id="Warstwa_2" data-name="Warstwa 2"><g id="Warstwa_2-2" data-name="Warstwa 2"><path class="cls-1" d="M68.93,153.71a50.54,50.54,0,1,1,0-94.12,58.54,58.54,0,0,0-16.6,18.84c-.6-.05-1.19-.07-1.79-.07a28.29,28.29,0,0,0,0,56.58c.6,0,1.19,0,1.79-.06A58.4,58.4,0,0,0,68.93,153.71Z"/><path class="cls-1" d="M131.65,1.27h0V106.65a28.29,28.29,0,1,1-28.29-28.29h11.13V56.11H103.35A50.31,50.31,0,0,0,77,63.56a50.91,50.91,0,0,0-16.6,16.56,50.46,50.46,0,0,0,0,53.07A50.88,50.88,0,0,0,77,149.74a50.53,50.53,0,0,0,76.94-43.09V50.24C135.36,30.7,131.65,1.27,131.65,1.27Z"/><path class="cls-2" d="M135.45,17.29c2.15,11.61,7.1,28.2,18.45,40.75v-7.8C144.27,40.09,138.64,27.27,135.45,17.29Z"/><path class="cls-3" d="M131.65,1.27S141.81,82,212.6,64.85C212.6,64.85,192.27-10.62,131.65,1.27Z"/></g></g></svg>