<svg xmlns="http://www.w3.org/2000/svg" viewBox="0 0 490.18 321.85"><defs><style>.cls-1{fill:#fff;}</style></defs><title>Construction</title><g id="Warstwa_2" data-name="Warstwa 2"><g id="Warstwa_1-2" data-name="Warstwa 1"><path class="cls-1" d="M147.51,197.74A94.82,94.82,0,1,1,113,14.6a94.15,94.15,0,0,1,34.5,6.53,109.63,109.63,0,0,0-31.14,35.34c-1.13-.08-2.24-.12-3.36-.12a53.09,53.09,0,1,0,0,106.17c1.12,0,2.23,0,3.36-.12A109.63,109.63,0,0,0,147.51,197.74Z"/><path class="cls-1" d="M476.29,186.41c-49.79-21.2-68.07-54.84-72-87.75C401.15,72.59,407,47,413.4,28.4c-9.75,19.89-20.88,50.39-17.86,82l-22.22,29.87a5.68,5.68,0,0,0-5.48,2.24l-.5.68a5.69,5.69,0,0,0-1,4.23,6,6,0,0,0,.5,1.63l-4.22,5.68a5.46,5.46,0,0,0-2.36.3,5.66,5.66,0,0,0-3.24,2.91l-.36.76a5.62,5.62,0,0,0-.23,4.35l-15.29,20.55A94.81,94.81,0,1,1,321.6,50.89l16.75,12.46-24.92,33.5L296.68,84.39a53.08,53.08,0,1,0,10.92,74.28L425.62,0l.08.06C530.18,50.07,476.29,186.41,476.29,186.41Z"/><path class="cls-1" d="M12.27,267.31C9.54,270.69,8.1,275.09,8,280.42c.1,5.3,1.54,9.72,4.27,13.11S19,298.6,24.05,298.6h5.89v7.08h-5c-7.7,0-13.84-2.24-18.22-6.62S0,288.39,0,280.42a32.35,32.35,0,0,1,1.71-10.67,21.33,21.33,0,0,1,5-8c4.38-4.4,10.52-6.61,18.22-6.61h5v7.07H24.05C19,262.23,15,264,12.27,267.31Z"/><path class="cls-1" d="M66.34,286v19.67H59.27V286.09q0-1.24-.09-2.13a10.61,10.61,0,0,0-.46-2.19,5.88,5.88,0,0,0-1.12-2.11,6.52,6.52,0,0,0-2.13-1.46,8.67,8.67,0,0,0-3.45-.64H44.34v28.12H37.26V255.16h7.08v15.61H50c5.32,0,9.18.82,11.52,2.42a9.36,9.36,0,0,1,4,5.16A28.68,28.68,0,0,1,66.34,286Z"/><path class="cls-1" d="M98.47,297.24l4.84,4.78-.35.29a18.29,18.29,0,0,1-11.84,4.08c-5.49,0-9.94-1.65-13.21-4.89a17,17,0,0,1-5-12.57c0-5.65,1.63-10.33,4.86-13.84s7.71-5.2,13.32-5q6.21.26,9.33,2.86a9.34,9.34,0,0,1,3.14,7.56c0,8.14-5.37,12.27-16,12.27H84.32v-6.3h3.82c3.07,0,5.19-.46,6.34-1.36s1.69-2.42,1.69-4.53a3.32,3.32,0,0,0-1.46-3,6.86,6.86,0,0,0-3.94-1,9.27,9.27,0,0,0-7.6,3.38,12.84,12.84,0,0,0-2.78,8.26,11.46,11.46,0,0,0,3,8.23,10.16,10.16,0,0,0,7.74,3.13,11.27,11.27,0,0,0,7.06-2.11Z"/><path class="cls-1" d="M130.64,270.77v6.79h-7.93c-.92,0-1.65,0-2.17.08a6.07,6.07,0,0,0-1.72.46,4.49,4.49,0,0,0-1.69,1.23c-.81,1-1.25,3.26-1.25,6.56v19.79H108.8V285.89c0-5.54,1.07-9.44,3.18-11.59a9.58,9.58,0,0,1,3.77-2.44,15,15,0,0,1,3.82-.94c1.09-.11,2.57-.15,4.41-.15Z"/><path class="cls-1" d="M155.21,270.77v6.79h-8c-.92,0-1.65,0-2.15.08a6.18,6.18,0,0,0-1.74.46,4.49,4.49,0,0,0-1.69,1.23c-.81,1-1.23,3.26-1.23,6.56v19.79h-7.1V285.89c0-5.54,1.07-9.44,3.18-11.59a9.87,9.87,0,0,1,3.77-2.44,15,15,0,0,1,3.85-.94c1.08-.11,2.56-.15,4.4-.15Z"/><path class="cls-1" d="M187,270.77v32.78c0,6-1.6,10.6-4.78,13.67s-8.16,4.63-14.86,4.63h-5.53v-6.8h4.88c8.29,0,12.61-3.07,13.17-9.37h-5.51c-6.28,0-10.64-1.15-13-3.39s-3.49-6.72-3.49-13.57v-18H165V289c0,3.71.56,6.34,1.69,7.76s3.17,2.11,6.2,2.11h7v-28.1Z"/><path class="cls-1" d="M222.56,263.61c-4.18-4.16-10-6.29-17.46-6.29h-9v48.32h9c7.43,0,13.28-2.13,17.46-6.29s6.31-10.15,6.35-17.87S226.71,267.79,222.56,263.61Zm-.67,25.52a19.4,19.4,0,0,1-3.31,6.17c-2.93,3.61-7.2,5.46-12.62,5.46h-4.5V262.2H206c5.42,0,9.69,1.85,12.62,5.49s4.42,8.23,4.53,13.79A26.14,26.14,0,0,1,221.89,289.13Z"/><path class="cls-1" d="M252.69,272.22h-.81c-4.9,0-8.82,1.58-11.66,4.68-3,3.31-4.59,7.72-4.59,13.1a15.83,15.83,0,0,0,4.64,11.79c3.07,3,7.25,4.56,12.43,4.56A17.31,17.31,0,0,0,263.24,303L260,299.75a12.56,12.56,0,0,1-7.26,2,11.25,11.25,0,0,1-8.54-3.48,12.62,12.62,0,0,1-3.29-9,13.74,13.74,0,0,1,3-8.94,10.28,10.28,0,0,1,8.42-3.81,8,8,0,0,1,4.57,1.22,4.36,4.36,0,0,1,1.94,3.87c0,2.47-.71,4.29-2.11,5.4s-3.68,1.6-7,1.6H247v4.09h2.24c10,0,14.86-3.65,14.86-11.16C264.09,275.6,260.36,272.55,252.69,272.22Z"/><path class="cls-1" d="M296.23,296.82a12.24,12.24,0,0,0-.26-2.59h0a6.87,6.87,0,0,0-1.19-2.59,6.72,6.72,0,0,0-2.67-2.09c-1.22-.53-3.18-1.24-5.82-2.09l-1.05-.34c-2.05-.65-3.18-1-3.49-1.12a15.3,15.3,0,0,1-1.55-.66,6.17,6.17,0,0,1-1.58-1,4.11,4.11,0,0,1-.95-1.28,3.76,3.76,0,0,1-.45-1.83,3.08,3.08,0,0,1,1.85-2.8,8.26,8.26,0,0,1,3.88-.86h11.86v-4.62H283a13.38,13.38,0,0,0-7.73,2.19,6.9,6.9,0,0,0-3,6.09,7.87,7.87,0,0,0,1.79,5.26,10.55,10.55,0,0,0,4.46,3.14c1.78.65,3.64,1.26,5.56,1.81a21.18,21.18,0,0,1,4.92,2,4,4,0,0,1,2.3,3.44c0,2.81-2.47,4.23-7.36,4.23H272.27v4.59h11.59C292.19,305.64,296.23,302.76,296.23,296.82Z"/><polygon class="cls-1" points="312.56 305.64 312.56 272.93 304.45 272.93 300.17 277.55 307.67 277.55 307.67 305.64 312.56 305.64"/><path class="cls-1" d="M309.56,259.45a2.73,2.73,0,0,0-2.32.92,3.37,3.37,0,0,0-.78,2.15,3.56,3.56,0,0,0,.78,2.23,2.85,2.85,0,0,0,2.32.88,2.76,2.76,0,0,0,2.31-.93,3.43,3.43,0,0,0,0-4.33h0A2.76,2.76,0,0,0,309.56,259.45Z"/><path class="cls-1" d="M344.64,319.64a27.1,27.1,0,0,0,2.77-2A21,21,0,0,0,350,315a11.54,11.54,0,0,0,2.18-4.08,18.35,18.35,0,0,0,.78-5.54V272.93H337a16.43,16.43,0,0,0-16.71,16.71,15.14,15.14,0,0,0,4.76,11.5,16.66,16.66,0,0,0,19,2.65v-4.73a14.78,14.78,0,0,1-7.57,2,11.31,11.31,0,0,1-7.88-3.05,11,11,0,0,1-3.3-8.36,12.27,12.27,0,0,1,3.16-8.76,11.28,11.28,0,0,1,8.52-3.33h11v28.5c0,4.41-1.74,7.62-5.18,9.54-1.88,1.1-4.89,1.64-9.19,1.64H327v4.59h7.26A22.68,22.68,0,0,0,344.64,319.64Z"/><path class="cls-1" d="M381.13,278.28a7,7,0,0,1,2.51,1.74,6.55,6.55,0,0,1,1.35,2.51,13.15,13.15,0,0,1,.53,2.41c0,.63.06,1.39.06,2.22v18.48h4.89V287.1a28.58,28.58,0,0,0-.79-7.39,8.43,8.43,0,0,0-3.59-4.55c-2.16-1.48-5.83-2.23-10.92-2.23H363.58v32.71h4.88V277.55h8.78A9.16,9.16,0,0,1,381.13,278.28Z"/><path class="cls-1" d="M375.2,150.13a14.87,14.87,0,0,0,.73,4.6l-6.5-4.8a4.18,4.18,0,0,1-1.57-2.33h0c0-.13-.06-.27-.08-.41a4.12,4.12,0,0,1,.77-3.11l.5-.68a4.12,4.12,0,0,1,2.75-1.65,3.42,3.42,0,0,1,.45,0h.18a4.15,4.15,0,0,1,2.48.82l1.72,1.27A14.71,14.71,0,0,0,375.2,150.13Z"/><path class="cls-1" d="M402.3,165.35a7.32,7.32,0,0,0-5.42.78l-1,.56a7.12,7.12,0,0,0-1.8,1.46l-4.3-3.18h.24a14.79,14.79,0,0,0,10-3.9l.56.42A4.17,4.17,0,0,1,402.3,165.35Z"/><path class="cls-1" d="M438.09,224.06a3.77,3.77,0,0,1-2.53,1.35,3.71,3.71,0,0,1-2.75-.83l-11.58-9.47-.34-.29a5.54,5.54,0,0,1-.42-.42c-.07-.08-.13-.17-.19-.25a1.67,1.67,0,0,1-.17-.26,3.79,3.79,0,0,1-.27-.53l0-.09v0l-.06-.14a1.2,1.2,0,0,1-.06-.18l-5.23-13.82.13-.07,1-.56A7.34,7.34,0,0,0,419,194a7.62,7.62,0,0,0,.2-1.06,3.72,3.72,0,0,1,1.66,1.94l5.54,14.64.07.19,11.09,9.07A3.77,3.77,0,0,1,438.09,224.06Z"/><path class="cls-1" d="M417.74,191.72c0,.26,0,.51,0,.76a5.88,5.88,0,0,1-2.93,4.7l-.9.51-.08.05a6.54,6.54,0,0,1-.59.3l-.3.11a5.19,5.19,0,0,0-.83-2,5.13,5.13,0,0,0-1.71-1.59,5.19,5.19,0,0,0-5.21,0l-9.67-16.75.21-.41.37-.76a5.71,5.71,0,0,0,.23-4.35,5.35,5.35,0,0,0-.74-1.4,5.08,5.08,0,0,0-.91-1,2.2,2.2,0,0,1,.17-.25,5.27,5.27,0,0,1,.48-.58,6.18,6.18,0,0,1,1.33-1l1-.57a5.88,5.88,0,0,1,2.93-.79,5.34,5.34,0,0,1,1.31.16l.22.05.51.16a4.54,4.54,0,0,1,.68.3,5.8,5.8,0,0,1,2.38,2.28L417,189.15a6.17,6.17,0,0,1,.68,1.83A6.26,6.26,0,0,1,417.74,191.72Z"/><path class="cls-1" d="M394.74,176l-.36.75a3,3,0,0,1-.16.31,4,4,0,0,1-.48.66,4.2,4.2,0,0,1-4.95,1l-28.85-13.78a4.16,4.16,0,0,1-2.15-2.38,3.84,3.84,0,0,1-.22-1.1,4.06,4.06,0,0,1,.39-2.1l.36-.76a4.21,4.21,0,0,1,2.39-2.15,3.45,3.45,0,0,1,.72-.18,4.17,4.17,0,0,1,2.48.35l28.83,13.76,0,0a4.55,4.55,0,0,1,1.24.9A4.2,4.2,0,0,1,394.74,176Z"/><path class="cls-1" d="M410.05,229.78a3.74,3.74,0,0,1-5.11-1.38l-7.65-13.34a2.55,2.55,0,0,1-.13-.29l-.13-.26a3.71,3.71,0,0,1-.15-4l7.65-13.33a2.71,2.71,0,0,1,.28-.41,3.45,3.45,0,0,1,.52-.56,3.72,3.72,0,0,1,.61-.43,3.79,3.79,0,0,1,.86-.35,3.75,3.75,0,0,1,4.68,3,3.15,3.15,0,0,1,0,.75,2.85,2.85,0,0,1-.11.76,3.78,3.78,0,0,1-.38.94l-6.6,11.5,7,12.22A3.75,3.75,0,0,1,410.05,229.78Z"/><path class="cls-1" d="M403.41,150.13a13.33,13.33,0,0,1-3.48,9l-.53.55c-.18.18-.37.35-.56.52a13.34,13.34,0,0,1-8.79,3.3,14.08,14.08,0,0,1-2.61-.25,15.25,15.25,0,0,1-2-.58h0a13.34,13.34,0,0,1-5.9-4.36h0l0,0a13.82,13.82,0,0,1-1.16-1.77h0a13.33,13.33,0,0,1-.45-11.79c.1-.23.21-.46.33-.68s.24-.45.37-.67a13.35,13.35,0,0,1,24.85,6.79Z"/></g></g></svg>