<svg xmlns="http://www.w3.org/2000/svg" xmlns:xlink="http://www.w3.org/1999/xlink" viewBox="0 0 199.8 197.64"><defs><style>.cls-1{fill:#ce1d5d;}.cls-2{fill:#b52963;}.cls-3{fill:url(#Gradient_bez_nazwy_54);}.cls-4{fill:#54ae47;}</style><linearGradient id="Gradient_bez_nazwy_54" x1="125.85" y1="2.04" x2="198.85" y2="61.04" gradientUnits="userSpaceOnUse"><stop offset="0" stop-color="#54ae47"/><stop offset="1" stop-color="#3e8b38"/></linearGradient></defs><title>Logo_V</title><g id="Warstwa_2" data-name="Warstwa 2"><g id="Warstwa_2-2" data-name="Warstwa 2"><path class="cls-1" d="M70.66,138.17a45.43,45.43,0,1,1,0-84.6A52.51,52.51,0,0,0,55.74,70.5c-.54,0-1.07-.06-1.61-.06a25.43,25.43,0,0,0,0,50.86c.54,0,1.07,0,1.61-.06A52.51,52.51,0,0,0,70.66,138.17Z"/><path class="cls-1" d="M127,1.14h0V95.87A25.43,25.43,0,1,1,101.6,70.44h10v-20h-10a45.16,45.16,0,0,0-23.73,6.7A45.73,45.73,0,0,0,63,72a45.34,45.34,0,0,0,0,47.7A45.73,45.73,0,0,0,77.87,134.6,45.42,45.42,0,0,0,147,95.87V45.16C130.38,27.59,127,1.14,127,1.14Z"/><path class="cls-2" d="M130.46,15.55C132.39,26,136.84,40.89,147,52.17v-7C138.38,36,133.32,24.52,130.46,15.55Z"/><path class="cls-3" d="M127,1.14s9.13,72.52,72.76,57.16C199.8,58.3,181.53-9.55,127,1.14Z"/><path class="cls-1" d="M5.88,171.51a10.64,10.64,0,0,0,0,12.56,6.86,6.86,0,0,0,5.64,2.43h2.82v3.39H11.93c-3.69,0-6.63-1.07-8.73-3.17S0,181.61,0,177.79a15.42,15.42,0,0,1,.82-5.11,10.14,10.14,0,0,1,2.38-3.82c2.1-2.11,5-3.17,8.73-3.17h2.41v3.39H11.52A6.86,6.86,0,0,0,5.88,171.51Z"/><path class="cls-1" d="M31.78,180.47v9.42H28.39v-9.38a10,10,0,0,0,0-1,5.06,5.06,0,0,0-.22-1.05,2.77,2.77,0,0,0-.54-1,3,3,0,0,0-1-.7,4.08,4.08,0,0,0-1.65-.31H21.24v13.47H17.85v-24.2h3.39v7.48h2.69c2.55,0,4.4.39,5.52,1.16a4.46,4.46,0,0,1,1.93,2.47A13.66,13.66,0,0,1,31.78,180.47Z"/><path class="cls-1" d="M47.17,185.85l2.32,2.29-.17.14a8.77,8.77,0,0,1-5.67,1.95,8.66,8.66,0,0,1-6.33-2.34,8.12,8.12,0,0,1-2.37-6,9.44,9.44,0,0,1,2.33-6.63,7.9,7.9,0,0,1,6.38-2.41,7.35,7.35,0,0,1,4.47,1.37,4.47,4.47,0,0,1,1.5,3.62c0,3.9-2.57,5.88-7.65,5.88H40.39v-3h1.83a5.18,5.18,0,0,0,3-.65,2.61,2.61,0,0,0,.81-2.17,1.59,1.59,0,0,0-.7-1.42,3.3,3.3,0,0,0-1.89-.49,4.45,4.45,0,0,0-3.64,1.62,6.17,6.17,0,0,0-1.33,4,5.5,5.5,0,0,0,1.43,3.94,4.87,4.87,0,0,0,3.71,1.5A5.39,5.39,0,0,0,47,186Z"/><path class="cls-1" d="M62.58,173.17v3.25h-3.8c-.44,0-.79,0-1,0a2.88,2.88,0,0,0-.82.22,2.12,2.12,0,0,0-.81.59,5.63,5.63,0,0,0-.6,3.14v9.48H52.12v-9.48c0-2.65.51-4.52,1.52-5.55a4.65,4.65,0,0,1,1.81-1.17,7.13,7.13,0,0,1,1.83-.45c.52-.05,1.23-.07,2.11-.07Z"/><path class="cls-1" d="M74.35,173.17v3.25H70.54c-.44,0-.79,0-1,0a2.94,2.94,0,0,0-.83.22,2.12,2.12,0,0,0-.81.59,5.65,5.65,0,0,0-.59,3.14v9.48h-3.4v-9.48c0-2.65.51-4.52,1.52-5.55a4.8,4.8,0,0,1,1.81-1.17,7.19,7.19,0,0,1,1.84-.45c.52-.05,1.23-.07,2.11-.07Z"/><path class="cls-1" d="M89.58,173.17v15.7c0,2.88-.77,5.08-2.29,6.55s-3.91,2.22-7.12,2.22H77.52v-3.26h2.34c4,0,6-1.47,6.31-4.49H83.53c-3,0-5.1-.55-6.21-1.62s-1.67-3.22-1.67-6.5v-8.6H79v8.73a6.27,6.27,0,0,0,.81,3.72,3.61,3.61,0,0,0,3,1h3.37V173.17Z"/><path class="cls-4" d="M106.61,186.86c2-2,3-4.86,3-8.56s-1.05-6.56-3-8.56-4.8-3-8.36-3H94v23.15h4.29C101.81,189.87,104.61,188.85,106.61,186.86Zm-10.1-17.8h2.15a7.38,7.38,0,0,1,6,2.63,10.52,10.52,0,0,1,2.17,6.6h0a10.6,10.6,0,0,1-2.17,6.62l-.1-.08h0l.1.08a7.4,7.4,0,0,1-6,2.61H96.51Z"/><path class="cls-4" d="M121.05,173.86h-.39a7.25,7.25,0,0,0-5.59,2.24,9,9,0,0,0-2.19,6.28A7.59,7.59,0,0,0,115.1,188a8.13,8.13,0,0,0,6,2.18,8.25,8.25,0,0,0,5-1.61l-1.57-1.55a6.06,6.06,0,0,1-3.48,1,5.39,5.39,0,0,1-4.09-1.67,6,6,0,0,1-1.57-4.3,6.6,6.6,0,0,1,1.45-4.28,5,5,0,0,1,4-1.83,3.9,3.9,0,0,1,2.19.58,2.12,2.12,0,0,1,.93,1.86,3.11,3.11,0,0,1-1,2.58,5.56,5.56,0,0,1-3.37.77h-1.31v2h1.08c4.79,0,7.12-1.75,7.12-5.34C126.51,175.48,124.72,174,121.05,173.86Z"/><path class="cls-4" d="M141.9,185.65a6.46,6.46,0,0,0-.12-1.25h0a3.5,3.5,0,0,0-.57-1.24,3.19,3.19,0,0,0-1.28-1,29.1,29.1,0,0,0-2.79-1l-.5-.17c-1-.31-1.52-.48-1.67-.54a6.07,6.07,0,0,1-.75-.31,3,3,0,0,1-.75-.48A2.08,2.08,0,0,1,133,179a1.81,1.81,0,0,1-.21-.87,1.46,1.46,0,0,1,.88-1.34,3.9,3.9,0,0,1,1.86-.42h5.68V174.2h-5.68a6.35,6.35,0,0,0-3.7,1.05,3.3,3.3,0,0,0-1.45,2.92,3.77,3.77,0,0,0,.85,2.52,5.07,5.07,0,0,0,2.14,1.5c.85.31,1.75.61,2.66.87a9.83,9.83,0,0,1,2.36.94,1.9,1.9,0,0,1,1.11,1.65c0,1.34-1.19,2-3.53,2h-5.55v2.2H136C140,189.87,141.9,188.49,141.9,185.65Z"/><polygon class="cls-4" points="149.72 189.87 149.72 174.2 145.84 174.2 143.79 176.41 147.38 176.41 147.38 189.87 149.72 189.87"/><path class="cls-4" d="M148.29,167.74a1.31,1.31,0,0,0-1.11.44,1.65,1.65,0,0,0-.38,1,1.7,1.7,0,0,0,.38,1.06,1.37,1.37,0,0,0,1.11.42,1.29,1.29,0,0,0,1.1-.44,1.64,1.64,0,0,0,.37-1,1.59,1.59,0,0,0-.37-1h0A1.31,1.31,0,0,0,148.29,167.74Z"/><path class="cls-4" d="M165.09,196.58a12.06,12.06,0,0,0,1.33-1,9.78,9.78,0,0,0,1.25-1.29,5.41,5.41,0,0,0,1.05-2,8.8,8.8,0,0,0,.37-2.65V174.2h-7.66a7.87,7.87,0,0,0-8,8,7.25,7.25,0,0,0,2.28,5.51,8,8,0,0,0,9.1,1.26v-2.26a7.09,7.09,0,0,1-3.62.95,5.39,5.39,0,0,1-3.77-1.46,5.25,5.25,0,0,1-1.58-4,5.85,5.85,0,0,1,1.51-4.2,5.39,5.39,0,0,1,4.08-1.6h5.25v13.66a4.85,4.85,0,0,1-2.48,4.57,9.17,9.17,0,0,1-4.4.78h-3.17v2.2h3.47A10.93,10.93,0,0,0,165.09,196.58Z"/><path class="cls-4" d="M182.57,176.76a3.28,3.28,0,0,1,1.2.84,3,3,0,0,1,.65,1.2,5.6,5.6,0,0,1,.25,1.15c0,.3,0,.67,0,1.07v8.85h2.34V181a13.64,13.64,0,0,0-.38-3.54,4,4,0,0,0-1.72-2.18c-1-.71-2.79-1.07-5.23-1.07h-5.55v15.67h2.34V176.41h4.2A4.44,4.44,0,0,1,182.57,176.76Z"/></g></g></svg>