<svg xmlns="http://www.w3.org/2000/svg" viewBox="0 0 449.27 134.33"><defs><style>.cls-1{fill:#fff;}</style></defs><title>Logo_W</title><g id="Warstwa_2" data-name="Warstwa 2"><g id="Warstwa_2-2" data-name="Warstwa 2"><path class="cls-1" d="M201.13,76.56a14.58,14.58,0,0,0,0,17.21,9.42,9.42,0,0,0,7.73,3.32h3.86v4.65h-3.3c-5,0-9.08-1.47-12-4.34s-4.35-7-4.38-12.24a21.13,21.13,0,0,1,1.12-7,13.89,13.89,0,0,1,3.26-5.24c2.88-2.89,6.91-4.34,12-4.34h3.3v4.64h-3.86A9.43,9.43,0,0,0,201.13,76.56Z"/><path class="cls-1" d="M236.61,88.84v12.9H232V88.89c0-.55,0-1-.05-1.4a6.78,6.78,0,0,0-.3-1.43,3.9,3.9,0,0,0-.74-1.39,4.45,4.45,0,0,0-1.4-1,5.63,5.63,0,0,0-2.26-.42h-5v18.45h-4.64V68.59h4.64V78.84h3.69c3.49,0,6,.53,7.56,1.59a6.1,6.1,0,0,1,2.64,3.38A18.67,18.67,0,0,1,236.61,88.84Z"/><path class="cls-1" d="M257.69,96.2l3.17,3.14-.23.19a12,12,0,0,1-7.76,2.67A11.85,11.85,0,0,1,244.2,99,11.13,11.13,0,0,1,241,90.75a13,13,0,0,1,3.19-9.08c2.12-2.31,5.05-3.41,8.74-3.3A10,10,0,0,1,259,80.25a6.12,6.12,0,0,1,2.06,5c0,5.34-3.52,8.05-10.48,8.05H248.4V89.12h2.51c2,0,3.41-.3,4.16-.89a3.57,3.57,0,0,0,1.11-3,2.14,2.14,0,0,0-1-1.94,4.45,4.45,0,0,0-2.59-.68,6.07,6.07,0,0,0-5,2.22,8.44,8.44,0,0,0-1.82,5.43,7.51,7.51,0,0,0,1.95,5.39,6.69,6.69,0,0,0,5.09,2.06,7.45,7.45,0,0,0,4.63-1.38Z"/><path class="cls-1" d="M278.79,78.84v4.45h-5.2c-.6,0-1.08,0-1.43,0a4.38,4.38,0,0,0-1.12.3,3,3,0,0,0-1.11.81c-.53.69-.82,2.14-.82,4.3v13h-4.64v-13c0-3.63.7-6.19,2.08-7.6a6.44,6.44,0,0,1,2.48-1.6,10.08,10.08,0,0,1,2.5-.62c.72-.07,1.69-.09,2.89-.09Z"/><path class="cls-1" d="M294.91,78.84v4.45H289.7c-.61,0-1.09,0-1.41,0a4.4,4.4,0,0,0-1.14.3,2.85,2.85,0,0,0-1.11.81c-.54.69-.81,2.14-.81,4.3v13h-4.66v-13c0-3.63.7-6.19,2.09-7.6a6.59,6.59,0,0,1,2.48-1.6,10.11,10.11,0,0,1,2.52-.62c.71-.07,1.68-.09,2.89-.09Z"/><path class="cls-1" d="M315.77,78.84v21.5c0,4-1,7-3.13,9s-5.36,3-9.75,3h-3.63v-4.46h3.2c5.44,0,8.27-2,8.64-6.15h-3.61c-4.12,0-7-.76-8.51-2.22s-2.28-4.41-2.28-8.9V78.84h4.64v12c0,2.44.37,4.17,1.11,5.1s2.08,1.38,4.07,1.38h4.61V78.84Z"/><path class="cls-1" d="M339.1,97.59c2.73-2.74,4.14-6.66,4.17-11.73s-1.44-9-4.17-11.72S332.52,70,327.65,70h-5.88v31.71h5.88C332.52,101.72,336.36,100.32,339.1,97.59ZM325.26,73.21h2.95a10.09,10.09,0,0,1,8.28,3.6,14.37,14.37,0,0,1,3,9h0a14.4,14.4,0,0,1-3,9.06l-.13-.11h0l.13.11a10.11,10.11,0,0,1-8.28,3.58h-2.95Z"/><path class="cls-1" d="M358.87,79.79h-.52a9.89,9.89,0,0,0-7.66,3.07,12.23,12.23,0,0,0-3,8.59,10.4,10.4,0,0,0,3.05,7.74,11.12,11.12,0,0,0,8.15,3,11.36,11.36,0,0,0,6.92-2.2l-2.16-2.13a8.23,8.23,0,0,1-4.76,1.32,7.36,7.36,0,0,1-5.6-2.29A8.21,8.21,0,0,1,351.12,91a9,9,0,0,1,2-5.87,6.75,6.75,0,0,1,5.53-2.5,5.24,5.24,0,0,1,3,.8A2.85,2.85,0,0,1,362.91,86a4.26,4.26,0,0,1-1.38,3.54c-.91.71-2.42,1-4.61,1h-1.79v2.69h1.47c6.56,0,9.75-2.4,9.75-7.32C366.35,82,363.9,80,358.87,79.79Z"/><path class="cls-1" d="M387.44,95.93a7.91,7.91,0,0,0-.17-1.7h0a4.75,4.75,0,0,0-.78-1.7,4.31,4.31,0,0,0-1.75-1.37c-.8-.35-2.09-.81-3.82-1.37l-.69-.22-2.29-.74c-.26-.09-.61-.24-1-.43a4.47,4.47,0,0,1-1-.66,2.86,2.86,0,0,1-.62-.84,2.57,2.57,0,0,1-.29-1.21,2,2,0,0,1,1.21-1.83,5.36,5.36,0,0,1,2.55-.57h7.78v-3h-7.78a8.78,8.78,0,0,0-5.07,1.44,4.53,4.53,0,0,0-2,4,5.18,5.18,0,0,0,1.18,3.46,7,7,0,0,0,2.93,2.06c1.16.43,2.39.83,3.65,1.18a13.93,13.93,0,0,1,3.23,1.29,2.59,2.59,0,0,1,1.51,2.26c0,1.84-1.63,2.77-4.83,2.77h-7.61v3h7.61C384.79,101.72,387.44,99.82,387.44,95.93Z"/><polygon class="cls-1" points="398.15 101.72 398.15 80.25 392.83 80.25 390.02 83.28 394.95 83.28 394.95 101.72 398.15 101.72"/><path class="cls-1" d="M396.19,71.41a1.78,1.78,0,0,0-1.52.6,2.21,2.21,0,0,0-.52,1.42,2.27,2.27,0,0,0,.52,1.45,1.84,1.84,0,0,0,1.52.58,1.79,1.79,0,0,0,1.51-.61,2.23,2.23,0,0,0,0-2.84h0A1.79,1.79,0,0,0,396.19,71.41Z"/><path class="cls-1" d="M419.2,110.9a16.43,16.43,0,0,0,1.82-1.29,14.23,14.23,0,0,0,1.72-1.78,7.55,7.55,0,0,0,1.43-2.68,12,12,0,0,0,.51-3.63V80.25H414.19a10.79,10.79,0,0,0-11,11,10,10,0,0,0,3.13,7.55,10.59,10.59,0,0,0,7.51,3,10.43,10.43,0,0,0,5-1.22V97.4a9.74,9.74,0,0,1-5,1.3,7.39,7.39,0,0,1-5.17-2,7.19,7.19,0,0,1-2.17-5.48,8,8,0,0,1,2.08-5.75,7.39,7.39,0,0,1,5.59-2.19h7.19V102a6.62,6.62,0,0,1-3.4,6.26c-1.23.73-3.21,1.08-6,1.08h-4.34v3h4.75A14.91,14.91,0,0,0,419.2,110.9Z"/><path class="cls-1" d="M443.14,83.76a4.67,4.67,0,0,1,1.65,1.14,4.28,4.28,0,0,1,.89,1.65,8.23,8.23,0,0,1,.34,1.58c0,.41.05.92.05,1.46v12.13h3.2V89.55a18.83,18.83,0,0,0-.51-4.85,5.52,5.52,0,0,0-2.36-3c-1.42-1-3.83-1.47-7.16-1.47h-7.61v21.47h3.2V83.28h5.76A6,6,0,0,1,443.14,83.76Z"/><path class="cls-1" d="M58.53,131.5a43.2,43.2,0,1,1,0-80.73A50.39,50.39,0,0,0,44.34,67q-.57,0-1.14,0a24.18,24.18,0,1,0,0,48.35q.57,0,1.14,0A50.39,50.39,0,0,0,58.53,131.5Z"/><path class="cls-1" d="M112.58,1.07h-.07V91.14A24.18,24.18,0,1,1,88.33,67h9.5v-19h-9.5a42.86,42.86,0,0,0-22.56,6.38A43.48,43.48,0,0,0,51.58,68.46a43.11,43.11,0,0,0,0,45.35A43.58,43.58,0,0,0,65.76,128a43.17,43.17,0,0,0,65.76-36.81V49.59c-9.7-10.72-13.92-24.89-15.76-34.81,2.72,8.53,7.53,19.48,15.76,28.16h0c10.38,10.94,26.21,18.26,50.16,12.48C181.68,55.42,164.33-9,112.58,1.07Z"/></g></g></svg>