<svg xmlns="http://www.w3.org/2000/svg" viewBox="0 0 212.6 157.19"><defs><style>.cls-1{fill:#fff;}</style></defs><title>Logo_I_W</title><g id="Warstwa_2" data-name="Warstwa 2"><g id="Warstwa_2-2" data-name="Warstwa 2"><path class="cls-1" d="M68.93,153.71a50.54,50.54,0,1,1,0-94.12,58.44,58.44,0,0,0-16.6,18.84c-.6-.05-1.19-.07-1.79-.07a28.29,28.29,0,0,0,0,56.58c.6,0,1.19,0,1.79-.07A58.54,58.54,0,0,0,68.93,153.71Z"/><path class="cls-1" d="M131.69,1.26h-.05V106.65a28.29,28.29,0,1,1-28.29-28.29h11.13V56.11H103.35A50.22,50.22,0,0,0,77,63.56a50.91,50.91,0,0,0-16.6,16.56,50.44,50.44,0,0,0,0,53.06A50.91,50.91,0,0,0,77,149.74a50.53,50.53,0,0,0,76.94-43.09V58C142.55,45.48,137.6,28.9,135.45,17.29c3.18,10,8.81,22.8,18.44,33,12.16,12.81,30.67,21.38,58.71,14.61C212.6,64.85,192.28-10.59,131.69,1.26Z"/></g></g></svg>