<svg xmlns="http://www.w3.org/2000/svg" viewBox="0 0 256.19 43.76"><defs><style>.cls-1{fill:#fff;}</style></defs><title>Logo_N_W</title><g id="Warstwa_2" data-name="Warstwa 2"><g id="Warstwa_2-2" data-name="Warstwa 2"><path class="cls-1" d="M8.05,8a13.72,13.72,0,0,0-2.8,8.6,13.72,13.72,0,0,0,2.8,8.6,9.4,9.4,0,0,0,7.73,3.33h3.86v4.65h-3.3c-5.05,0-9.08-1.47-12-4.35S0,21.81,0,16.57a21.19,21.19,0,0,1,1.12-7A13.93,13.93,0,0,1,4.38,4.34C7.26,1.45,11.29,0,16.34,0h3.3V4.64H15.78A9.43,9.43,0,0,0,8.05,8Z"/><path class="cls-1" d="M43.53,20.24V33.15H38.89V20.3a13.89,13.89,0,0,0-.06-1.4,7,7,0,0,0-.3-1.44,3.94,3.94,0,0,0-.74-1.38,4.19,4.19,0,0,0-1.4-1,5.63,5.63,0,0,0-2.26-.42h-5V33.15H24.45V0h4.64V10.25h3.69c3.49,0,6,.53,7.56,1.58A6.15,6.15,0,0,1,43,15.22,18.64,18.64,0,0,1,43.53,20.24Z"/><path class="cls-1" d="M64.61,27.61l3.18,3.14-.24.19a12,12,0,0,1-7.76,2.67,11.85,11.85,0,0,1-8.67-3.2,11.14,11.14,0,0,1-3.25-8.25,13,13,0,0,1,3.19-9.08c2.12-2.31,5.06-3.41,8.74-3.3a10,10,0,0,1,6.12,1.88A6.1,6.1,0,0,1,68,16.61c0,5.35-3.52,8.06-10.48,8.06H55.32V20.53h2.51c2,0,3.41-.3,4.16-.89a3.57,3.57,0,0,0,1.11-3,2.17,2.17,0,0,0-1-2,4.53,4.53,0,0,0-2.59-.67,6.07,6.07,0,0,0-5,2.22,8.44,8.44,0,0,0-1.82,5.43,7.53,7.53,0,0,0,2,5.39,6.69,6.69,0,0,0,5.09,2.06,7.39,7.39,0,0,0,4.63-1.39Z"/><path class="cls-1" d="M85.71,10.25V14.7h-5.2c-.6,0-1.08,0-1.42.05a4,4,0,0,0-1.13.3,3,3,0,0,0-1.11.81c-.53.69-.82,2.14-.82,4.3v13H71.39v-13c0-3.63.7-6.19,2.08-7.6A6.33,6.33,0,0,1,76,11a10,10,0,0,1,2.51-.62c.71-.07,1.68-.09,2.89-.09Z"/><path class="cls-1" d="M101.84,10.25V14.7H96.62c-.61,0-1.08,0-1.41.05a4,4,0,0,0-1.14.3,2.92,2.92,0,0,0-1.11.81c-.53.69-.81,2.14-.81,4.3v13H87.5v-13c0-3.63.69-6.19,2.08-7.6A6.48,6.48,0,0,1,92.06,11a10.11,10.11,0,0,1,2.52-.62c.71-.07,1.68-.09,2.89-.09Z"/><path class="cls-1" d="M122.7,10.25v21.5c0,3.94-1.06,7-3.14,9s-5.36,3-9.75,3h-3.63V39.3h3.2c5.44,0,8.28-2,8.65-6.15h-3.62c-4.12,0-7-.76-8.51-2.22s-2.28-4.41-2.28-8.91V10.25h4.64v12c0,2.44.37,4.17,1.11,5.1s2.08,1.38,4.07,1.38h4.61V10.25Z"/><path class="cls-1" d="M146,29c2.73-2.74,4.14-6.66,4.17-11.73s-1.44-9-4.17-11.72-6.58-4.13-11.45-4.13h-5.88V33.13h5.88C139.44,33.12,143.28,31.73,146,29ZM132.18,4.62h2.95a10.06,10.06,0,0,1,8.28,3.6,14.35,14.35,0,0,1,3,9h0a14.41,14.41,0,0,1-3,9.07l-.13-.11h0l.13.11a10.11,10.11,0,0,1-8.28,3.58h-2.95Z"/><path class="cls-1" d="M165.79,11.2h-.52a9.92,9.92,0,0,0-7.66,3.06,12.31,12.31,0,0,0-3,8.6,10.4,10.4,0,0,0,3.05,7.74,11.12,11.12,0,0,0,8.15,3,11.36,11.36,0,0,0,6.92-2.2l-2.16-2.13a8.31,8.31,0,0,1-4.76,1.32,7.36,7.36,0,0,1-5.6-2.29,8.26,8.26,0,0,1-2.16-5.9,9,9,0,0,1,2-5.86,6.72,6.72,0,0,1,5.53-2.5,5.3,5.3,0,0,1,3,.8,2.86,2.86,0,0,1,1.26,2.54,4.26,4.26,0,0,1-1.38,3.54c-.91.71-2.41,1.05-4.61,1.05h-1.79v2.69h1.48c6.55,0,9.74-2.4,9.74-7.32C173.27,13.42,170.82,11.41,165.79,11.2Z"/><path class="cls-1" d="M194.36,27.34a8.07,8.07,0,0,0-.17-1.71h0a4.68,4.68,0,0,0-.78-1.7,4.31,4.31,0,0,0-1.75-1.37c-.8-.35-2.09-.81-3.82-1.37l-.69-.22-2.29-.74c-.26-.09-.61-.24-1-.43a4.47,4.47,0,0,1-1-.66,3,3,0,0,1-.62-.84,2.57,2.57,0,0,1-.29-1.21,2,2,0,0,1,1.21-1.83,5.36,5.36,0,0,1,2.55-.57h7.78v-3h-7.78a8.78,8.78,0,0,0-5.07,1.44,4.53,4.53,0,0,0-2,4,5.13,5.13,0,0,0,1.17,3.45,6.89,6.89,0,0,0,2.93,2.06c1.16.43,2.39.83,3.65,1.19a13.93,13.93,0,0,1,3.23,1.29,2.59,2.59,0,0,1,1.51,2.26c0,1.84-1.63,2.77-4.83,2.77h-7.61v3h7.61C191.71,33.13,194.36,31.23,194.36,27.34Z"/><polygon class="cls-1" points="205.07 33.13 205.07 11.66 199.75 11.66 196.94 14.69 201.87 14.69 201.87 33.13 205.07 33.13"/><path class="cls-1" d="M203.11,2.81a1.79,1.79,0,0,0-1.52.61,2.17,2.17,0,0,0-.51,1.41,2.26,2.26,0,0,0,.51,1.46,1.84,1.84,0,0,0,1.52.58,1.79,1.79,0,0,0,1.51-.61,2.23,2.23,0,0,0,0-2.84h0A1.79,1.79,0,0,0,203.11,2.81Z"/><path class="cls-1" d="M226.12,42.31a16.34,16.34,0,0,0,1.82-1.3,12.78,12.78,0,0,0,1.72-1.77,7.63,7.63,0,0,0,1.43-2.68,12.1,12.1,0,0,0,.52-3.63V11.66h-10.5a10.79,10.79,0,0,0-11,11,9.92,9.92,0,0,0,3.13,7.54,10.56,10.56,0,0,0,7.51,3,10.43,10.43,0,0,0,5-1.22v-3.1a9.74,9.74,0,0,1-5,1.3,7.39,7.39,0,0,1-5.17-2,7.19,7.19,0,0,1-2.17-5.48,8,8,0,0,1,2.08-5.75,7.39,7.39,0,0,1,5.59-2.19h7.19v18.7a6.63,6.63,0,0,1-3.4,6.26c-1.23.72-3.2,1.08-6,1.08h-4.34v3h4.76A14.84,14.84,0,0,0,226.12,42.31Z"/><path class="cls-1" d="M250.07,15.17a4.63,4.63,0,0,1,1.64,1.14A4.28,4.28,0,0,1,252.6,18a8.23,8.23,0,0,1,.34,1.58c0,.41.05.91.05,1.46V33.13h3.2V21a18.83,18.83,0,0,0-.51-4.85,5.52,5.52,0,0,0-2.36-3c-1.42-1-3.82-1.47-7.16-1.47h-7.61V33.13h3.21V14.69h5.75A6.09,6.09,0,0,1,250.07,15.17Z"/></g></g></svg>